<svg width="360" height="311" version="1.1" xmlns="http://www.w3.org/2000/svg"><path fill="rgb(30,35,35)" stroke="rgb(30,35,35)" stroke-width="1" opacity="0.996078431372549" d="M 97.5 63 L 100 63.5 L 97.5 64 L 97.5 63 Z "></path><path fill="rgb(30,35,35)" stroke="rgb(30,35,35)" stroke-width="1" opacity="0.996078431372549" d="M 109.5 63 L 114 63.5 L 109.5 64 L 109.5 63 Z "></path><path fill="rgb(30,35,35)" stroke="rgb(30,35,35)" stroke-width="1" opacity="0.996078431372549" d="M 321.5 63 L 326 63.5 L 321.5 64 L 321.5 63 Z "></path><path fill="rgb(30,35,35)" stroke="rgb(30,35,35)" stroke-width="1" opacity="0.996078431372549" d="M 149.5 65 L 150.5 66 L 326.5 66 L 328 67.5 L 328 218.5 L 326 220.5 L 326 225.5 Q 323 226.5 324 231.5 L 315 248 L 313 248 L 313 250 Q 310.3 248.9 311 251.5 L 307 254 L 307 256 L 305 256 L 305 258 L 303 258 L 303 260 L 301 260 Q 302.1 262.7 299.5 262 L 286.5 270 L 278.5 273 L 274.5 273 L 271.5 275 L 261.5 275 L 259.5 277 L 257.5 276 L 256.5 277 L 238.5 277 L 235.5 275 L 228.5 275 L 223.5 273 L 212 263.5 L 210 260.5 Q 202.4 252.8 203 238 L 254.5 238 L 270 234 L 270 232 L 273 232 Q 271.9 229.3 274.5 230 L 279 226.5 L 281 223.5 L 285 218.5 L 287 211.5 L 289 209.5 L 289 201.5 L 290 200.5 L 290 130.5 L 290 128.5 L 289 107.5 L 290 105 L 182.5 105 L 180 102.5 L 180 100.5 L 172 88 L 170 88 L 170 86 L 168 86 L 168 84 Q 165.3 85.1 166 82.5 L 150 69.5 L 148 66.5 L 149.5 65 Z M 154 68 L 152 70 L 160 74 Q 173 84 181 101 L 185 104 L 291 104 L 291 208 L 282 226 Q 275 234 263 238 Q 258 237 257 239 L 205 239 Q 205 254 213 262 L 215 265 L 224 271 L 239 275 L 256 275 L 257 274 L 273 273 Q 290 269 302 259 Q 322 243 327 213 L 327 70 L 326 68 L 154 68 Z "></path><path fill="rgb(30,35,35)" stroke="rgb(30,35,35)" stroke-width="1" opacity="0.996078431372549" d="M 100.5 66 L 109.5 66 L 110.5 67 L 123.5 68 L 128.5 69 L 135.5 73 L 139 73 L 139 75 L 143 75 L 143 77 L 146 77 Q 144.8 80 148.5 79 L 152 81 L 154 85 L 156.5 85 L 166 94.5 L 166 96 Q 168.7 94.9 168 97.5 L 175 107.5 L 177 115 L 179 115 L 179 120 L 181 120 L 181 125.5 L 183 127.5 Q 181.9 137.1 185 142.5 L 185 273.5 Q 184.5 277.5 179.5 277 L 177.5 275 L 171.5 275 Q 170.8 272.2 166.5 273 L 153 263 L 153 260 Q 150 261.3 151 257.5 L 147 251.5 L 145 241.5 L 145 217.5 L 145.5 216 L 91.5 216 L 81 220 L 81 222 L 78 222 Q 79.1 224.7 76.5 224 L 74 225 L 72 230 L 70 230 Q 71.3 234.1 68 233 L 68 236.5 L 65 246.5 L 65 274.5 L 63.5 276 L 51.5 275 L 37 266 L 31 257.5 L 31 255 Q 27.3 256.4 29 250.5 L 27 248.5 L 27 130.5 L 29 128.5 L 29 122.5 L 31 120.5 L 33 112.5 L 44 94 L 46 94 L 46 92 L 48 92 L 48 90 L 50 90 Q 48.9 87.3 51.5 88 L 54 87 L 54 85 L 56 85 Q 54.9 82.3 57.5 83 Q 64.2 75.7 75 72.5 L 73 69.5 L 75 70.5 Q 74.3 72.8 76.5 72 L 83.5 69 L 100.5 66 Z M 97 68 L 75 74 L 56 86 Q 44 95 37 109 L 31 123 L 28 138 L 28 245 Q 30 254 35 261 Q 43 272 61 275 L 64 273 L 64 251 L 63 250 L 65 238 L 73 224 L 84 217 L 94 214 L 147 214 L 147 242 Q 150 243 148 249 L 154 261 L 167 271 L 175 274 L 180 274 Q 181 276 182 274 L 182 133 L 177 116 L 173 108 L 163 95 L 161 92 Q 149 79 131 72 L 113 68 L 97 68 Z "></path><path fill="rgb(30,35,35)" stroke="rgb(30,35,35)" stroke-width="1" opacity="0.996078431372549" d="M 150.5 74 L 154 76.5 L 151.5 78 Q 147 76 150.5 74 Z "></path><path fill="rgb(30,35,35)" stroke="rgb(30,35,35)" stroke-width="1" opacity="0.996078431372549" d="M 41.5 93 L 40.5 95 L 41.5 93 Z "></path><path fill="rgb(30,35,35)" stroke="rgb(30,35,35)" stroke-width="1" opacity="0.996078431372549" d="M 96.5 104 Q 109.2 102.3 117.5 105 Q 128.8 108.7 136 116.5 Q 144.3 124.7 147 138.5 L 147 177.5 L 145.5 179 L 93.5 179 L 79.5 183 Q 70.4 186.4 64.5 193 L 63 184.5 L 64 183.5 L 64 136.5 Q 67.9 120.4 79.5 112 L 96.5 104 Z M 97 105 L 97 107 Q 91 105 90 109 Q 85 108 86 111 Q 83 110 82 113 Q 79 112 80 115 L 78 115 L 78 117 L 76 117 L 76 119 L 74 119 L 74 121 L 72 121 Q 73 125 70 124 L 70 128 L 68 128 L 65 142 L 65 190 L 69 188 L 69 186 L 72 186 L 77 182 L 97 177 L 145 177 L 145 137 L 136 118 L 130 113 Q 127 114 128 111 L 124 111 L 124 109 L 120 109 L 120 107 L 113 107 L 113 105 L 97 105 Z "></path><path fill="rgb(30,35,35)" stroke="rgb(30,35,35)" stroke-width="1" opacity="0.996078431372549" d="M 192.5 108 L 210 108.5 L 192.5 109 L 192.5 108 Z "></path><path fill="rgb(30,35,35)" stroke="rgb(30,35,35)" stroke-width="1" opacity="0.996078431372549" d="M 74.5 125 L 73.5 127 L 74.5 125 Z "></path><path fill="rgb(30,35,35)" stroke="rgb(30,35,35)" stroke-width="1" opacity="0.996078431372549" d="M 187.5 144 L 188 149.5 L 187 149.5 L 187.5 144 Z "></path><path fill="rgb(30,35,35)" stroke="rgb(30,35,35)" stroke-width="1" opacity="0.996078431372549" d="M 187.5 154 L 188 165.5 L 187 165.5 L 187.5 154 Z "></path><path fill="rgb(30,35,35)" stroke="rgb(30,35,35)" stroke-width="1" opacity="0.996078431372549" d="M 142.5 158 L 143 162.5 L 142 162.5 L 142.5 158 Z "></path><path fill="rgb(30,35,35)" stroke="rgb(30,35,35)" stroke-width="1" opacity="0.996078431372549" d="M 142.5 165 L 143 167.5 L 142 167.5 L 142.5 165 Z "></path><path fill="rgb(30,35,35)" stroke="rgb(30,35,35)" stroke-width="1" opacity="0.996078431372549" d="M 142.5 169 L 143 171.5 L 142 171.5 L 142.5 169 Z "></path><path fill="rgb(30,35,35)" stroke="rgb(30,35,35)" stroke-width="1" opacity="0.996078431372549" d="M 187.5 172 L 188 191.5 L 187 191.5 L 187.5 172 Z "></path><path fill="rgb(30,35,35)" stroke="rgb(30,35,35)" stroke-width="1" opacity="0.996078431372549" d="M 68.5 175 L 69 177.5 L 68 177.5 L 68.5 175 Z "></path><path fill="rgb(30,35,35)" stroke="rgb(30,35,35)" stroke-width="1" opacity="0.996078431372549" d="M 187.5 193 L 188 198.5 L 187 198.5 L 187.5 193 Z "></path><path fill="rgb(30,35,35)" stroke="rgb(30,35,35)" stroke-width="1" opacity="0.996078431372549" d="M 187.5 200 L 188 204.5 L 187 204.5 L 187.5 200 Z "></path><path fill="rgb(30,35,35)" stroke="rgb(30,35,35)" stroke-width="1" opacity="0.996078431372549" d="M 187.5 207 L 188 218.5 L 187 218.5 L 187.5 207 Z "></path><path fill="rgb(30,35,35)" stroke="rgb(30,35,35)" stroke-width="1" opacity="0.996078431372549" d="M 276.5 223 L 276.5 226 Q 273.5 224.5 276.5 223 Z "></path><path fill="rgb(30,35,35)" stroke="rgb(30,35,35)" stroke-width="1" opacity="0.996078431372549" d="M 324.5 233 L 325.5 235 L 324.5 233 Z "></path><path fill="rgb(30,35,35)" stroke="rgb(30,35,35)" stroke-width="1" opacity="0.996078431372549" d="M 200.5 238 L 201 240.5 L 200 240.5 L 200.5 238 Z "></path><path fill="rgb(30,35,35)" stroke="rgb(30,35,35)" stroke-width="1" opacity="0.996078431372549" d="M 142.5 240 L 143 243.5 L 142 243.5 L 142.5 240 Z "></path><path fill="rgb(30,35,35)" stroke="rgb(30,35,35)" stroke-width="1" opacity="0.996078431372549" d="M 187.5 253 L 188 263.5 L 187 263.5 L 187.5 253 Z "></path><path fill="rgb(30,35,35)" stroke="rgb(30,35,35)" stroke-width="1" opacity="0.996078431372549" d="M 68.5 263 L 69 266.5 L 68 266.5 L 68.5 263 Z "></path><path fill="rgb(30,35,35)" stroke="rgb(30,35,35)" stroke-width="1" opacity="0.996078431372549" d="M 187.5 266 L 188 270.5 L 187 270.5 L 187.5 266 Z "></path><path fill="rgb(30,35,35)" stroke="rgb(30,35,35)" stroke-width="1" opacity="0.996078431372549" d="M 280.5 273 L 284 274.5 L 282.5 275 L 280.5 273 Z "></path><path fill="rgb(30,35,35)" stroke="rgb(30,35,35)" stroke-width="1" opacity="0.996078431372549" d="M 237.5 279 L 258 279.5 L 237.5 280 L 237.5 279 Z "></path><path fill="rgb(247,248,247)" stroke="rgb(247,248,247)" stroke-width="1" opacity="1" d="M 96.5 68 L 112.5 68 L 130.5 72 Q 148.7 78.8 161 91.5 L 163 94.5 L 173 107.5 L 177 115.5 L 182 132.5 L 182 273.5 Q 180.8 276.3 179.5 274 L 174.5 274 L 166.5 271 L 154 260.5 L 148 248.5 Q 149.5 243 147 241.5 L 147 214 L 93.5 214 L 83.5 217 L 73 224 L 65 237.5 L 63 249.5 L 64 250.5 L 64 272.5 L 60.5 275 Q 43.3 272.3 35 260.5 Q 29.9 254.1 28 244.5 L 28 137.5 L 31 122.5 L 37 108.5 Q 44.2 95.2 55.5 86 L 74.5 74 L 96.5 68 Z M 97 104 L 80 112 Q 68 120 64 137 L 64 184 L 63 185 L 65 193 Q 70 186 80 183 L 94 179 L 146 179 L 147 178 L 147 139 Q 144 125 136 117 Q 129 109 118 105 Q 109 102 97 104 Z "></path><path fill="rgb(247,248,247)" stroke="rgb(247,248,247)" stroke-width="1" opacity="1" d="M 153.5 68 L 325.5 68 L 327 69.5 L 327 212.5 Q 321.8 243.3 301.5 259 Q 289.6 268.6 272.5 273 L 256.5 274 L 255.5 275 L 238.5 275 L 223.5 271 L 215 264.5 L 213 261.5 Q 204.7 254 205 239 L 256.5 239 Q 257.8 236.8 262.5 238 Q 274.8 234.3 282 225.5 L 291 207.5 L 291 104 L 184.5 104 L 181 100.5 Q 173.1 84.4 159.5 74 L 152 69.5 L 153.5 68 Z "></path><path fill="rgb(15,21,21)" stroke="rgb(15,21,21)" stroke-width="1" opacity="1" d="M 0 0 L 360 0.5 L 357 1.5 L 360 2.5 L 357 3 L 357 5 L 360 5.5 L 360 21 L 0.5 21 L 0 20.5 L 0 0 Z M 3 3 Q 2 6 5 5 Q 6 2 3 3 Z "></path><path fill="rgb(15,21,21)" stroke="rgb(15,21,21)" stroke-width="1" opacity="1" d="M 116.5 51 L 133.5 51 L 136 53.5 L 135.5 60 L 133.5 58 L 124.5 58 L 113 60 Q 111.5 52.8 116.5 51 Z "></path><path fill="rgb(15,21,21)" stroke="rgb(15,21,21)" stroke-width="1" opacity="1" d="M 211 53 L 222 53 L 222 59 L 211 59 L 211 53 Z "></path><path fill="rgb(15,21,21)" stroke="rgb(15,21,21)" stroke-width="1" opacity="1" d="M 303.5 53 L 314 53 L 314 58 L 302 59 Q 300.8 54.4 303.5 53 Z "></path><path fill="rgb(15,21,21)" stroke="rgb(15,21,21)" stroke-width="1" opacity="1" d="M 80.5 54 L 92 54 L 92 59.5 L 90.5 63 L 78 65 L 78 56.5 L 80.5 54 Z "></path><path fill="rgb(15,21,21)" stroke="rgb(15,21,21)" stroke-width="1" opacity="1" d="M 148.5 55 Q 153 54 154 56.5 L 153 61 L 149.5 61 L 146 59 Q 144.5 55.3 147.5 56 L 148.5 55 Z "></path><path fill="rgb(15,21,21)" stroke="rgb(15,21,21)" stroke-width="1" opacity="1" d="M 318 55 L 331.5 55 L 332 59 L 322.5 58 L 319.5 59 L 318 57.5 L 318 55 Z "></path><path fill="rgb(15,21,21)" stroke="rgb(15,21,21)" stroke-width="1" opacity="1" d="M 152.5 63 L 154 66 Q 150.5 67.1 152.5 63 Z "></path><path fill="rgb(15,21,21)" stroke="rgb(15,21,21)" stroke-width="1" opacity="1" d="M 58 64 L 64.5 64 L 66 65.5 L 68 68.5 L 65.5 71 L 57 74 Q 56 67.1 58 64 Z "></path><path fill="rgb(15,21,21)" stroke="rgb(15,21,21)" stroke-width="1" opacity="1" d="M 102.5 64 L 106 64.5 L 102.5 65 L 102.5 64 Z "></path><path fill="rgb(15,21,21)" stroke="rgb(15,21,21)" stroke-width="1" opacity="1" d="M 85 65 Q 88.3 67.1 96.5 66 L 100.5 65 L 100.5 66 L 87.5 68 L 85.5 67 L 85.5 69 L 81.5 70 Q 78.5 68.5 81.5 67 Q 86.3 68.3 85 65 Z "></path><path fill="rgb(15,21,21)" stroke="rgb(15,21,21)" stroke-width="1" opacity="1" d="M 204.5 65 L 210 65.5 L 204.5 66 L 204.5 65 Z "></path><path fill="rgb(15,21,21)" stroke="rgb(15,21,21)" stroke-width="1" opacity="1" d="M 216.5 65 L 229 65.5 L 216.5 66 L 216.5 65 Z "></path><path fill="rgb(15,21,21)" stroke="rgb(15,21,21)" stroke-width="1" opacity="1" d="M 295.5 65 L 302 65.5 L 295.5 66 L 295.5 65 Z "></path><path fill="rgb(15,21,21)" stroke="rgb(15,21,21)" stroke-width="1" opacity="1" d="M 319.5 65 L 325 65.5 L 319.5 66 L 319.5 65 Z "></path><path fill="rgb(15,21,21)" stroke="rgb(15,21,21)" stroke-width="1" opacity="1" d="M 113.5 66 L 122.5 66 L 123 68 L 113.5 67 L 113.5 66 Z "></path><path fill="rgb(15,21,21)" stroke="rgb(15,21,21)" stroke-width="1" opacity="1" d="M 125.5 68 L 129 68.5 L 125.5 69 L 125.5 68 Z "></path><path fill="rgb(15,21,21)" stroke="rgb(15,21,21)" stroke-width="1" opacity="1" d="M 328.5 68 L 330 72.5 L 330 106.5 L 331 107.5 L 330 108.5 L 330 167.5 L 330 169.5 L 330 218.5 L 328.5 220 L 328.5 68 Z "></path><path fill="rgb(15,21,21)" stroke="rgb(15,21,21)" stroke-width="1" opacity="1" d="M 70.5 70 L 71 72 L 75 72.5 L 71 73 L 71 75 L 67 75 Q 68.3 78 64.5 77 L 64.5 76 L 70 72.5 L 70.5 70 Z "></path><path fill="rgb(15,21,21)" stroke="rgb(15,21,21)" stroke-width="1" opacity="1" d="M 76.5 70 L 80 70.5 L 76.5 71 L 76.5 70 Z "></path><path fill="rgb(15,21,21)" stroke="rgb(15,21,21)" stroke-width="1" opacity="1" d="M 131.5 70 L 135 70.5 L 131.5 71 L 131.5 70 Z "></path><path fill="rgb(15,21,21)" stroke="rgb(15,21,21)" stroke-width="1" opacity="1" d="M 149.5 71 L 153 71 Q 151.9 73.7 154.5 73 L 154.5 74 Q 149.5 73.8 149.5 71 Z "></path><path fill="rgb(15,21,21)" stroke="rgb(15,21,21)" stroke-width="1" opacity="1" d="M 136.5 72 L 146 74 Q 147.5 77.8 144.5 77 L 136.5 73 L 136.5 72 Z "></path><path fill="rgb(15,21,21)" stroke="rgb(15,21,21)" stroke-width="1" opacity="1" d="M 333.5 75 L 334 77 L 337 77.5 L 337 95 L 333.5 97 L 333.5 75 Z "></path><path fill="rgb(15,21,21)" stroke="rgb(15,21,21)" stroke-width="1" opacity="1" d="M 61 77 Q 64 76 63 79 Q 60 78 61 81 L 58 81 L 58 83 L 54 85 L 54 83 L 56 83 Q 54.9 80.3 57.5 81 L 61 78.5 L 61 77 Z "></path><path fill="rgb(15,21,21)" stroke="rgb(15,21,21)" stroke-width="1" opacity="1" d="M 147 77 Q 150 76 149 79 Q 146 80 147 77 Z "></path><path fill="rgb(15,21,21)" stroke="rgb(15,21,21)" stroke-width="1" opacity="1" d="M 157.5 77 L 160 77.5 L 154 80 Q 152.8 77 156.5 78 L 157.5 77 Z "></path><path fill="rgb(15,21,21)" stroke="rgb(15,21,21)" stroke-width="1" opacity="1" d="M 44 79 L 49 79 L 49 81.5 L 44.5 85 L 44 79 Z "></path><path fill="rgb(15,21,21)" stroke="rgb(15,21,21)" stroke-width="1" opacity="1" d="M 150.5 80 L 157 81 L 158 85 Q 161 84 160 87 Q 157 88 158 85 L 155.5 85 L 152 83 Q 153.1 80.3 150.5 81 L 150.5 80 Z "></path><path fill="rgb(15,21,21)" stroke="rgb(15,21,21)" stroke-width="1" opacity="1" d="M 165.5 82 L 166 84 L 168 84 L 168 86 L 170 86 L 170 88 Q 172.7 86.9 172 89.5 L 174 93 L 172 93.5 L 173 96.5 L 170.5 100 L 170 98 Q 167.3 99.1 168 96.5 L 169.5 97 L 171 96.5 L 169.5 94 L 166.5 96 L 166 93.5 Q 169.3 92.3 168 86.5 Q 163.8 85.3 165.5 82 Z M 170 91 Q 169 94 172 93 Q 173 90 170 91 Z "></path><path fill="rgb(15,21,21)" stroke="rgb(15,21,21)" stroke-width="1" opacity="1" d="M 49.5 84 Q 52.5 83.2 51 87 L 48 85.5 L 49.5 84 Z "></path><path fill="rgb(15,21,21)" stroke="rgb(15,21,21)" stroke-width="1" opacity="1" d="M 162.5 89 L 164.5 92 L 162 91 L 162.5 89 Z "></path><path fill="rgb(15,21,21)" stroke="rgb(15,21,21)" stroke-width="1" opacity="1" d="M 34 90 L 37 91.5 L 37 94.5 L 32.5 101 Q 29.9 100.2 31 103.5 L 27.5 108 L 26 107.5 Q 27.7 112.3 23.5 111 L 21 113.5 L 21 123.5 L 22.5 123 Q 25.3 122.4 24 128.5 L 22 133.5 L 22 246.5 L 26 260.5 L 35.5 272 Q 38.1 271.3 37 274 L 39 274 L 39 276.5 Q 38 280 32.5 279 L 30 272 L 26 272 L 26 263 L 20.5 263 L 18 262 L 18 248.5 L 20 244.5 L 20 134.5 Q 17 132.3 18 127 L 15 125.5 L 15 102.5 L 16.5 101 L 26.5 101 L 27 98.5 L 29.5 97 L 34 98 L 34 90 Z "></path><path fill="rgb(15,21,21)" stroke="rgb(15,21,21)" stroke-width="1" opacity="1" d="M 46.5 91 L 48 91.5 L 46 92 L 45.5 94 L 45 92.5 L 46.5 91 Z "></path><path fill="rgb(15,21,21)" stroke="rgb(15,21,21)" stroke-width="1" opacity="1" d="M 174 94 L 176 94 L 176 97 Q 179 96 178 99 L 174 97 L 174 94 Z "></path><path fill="rgb(15,21,21)" stroke="rgb(15,21,21)" stroke-width="1" opacity="1" d="M 39.5 95 Q 44.3 97.3 40 99.5 L 39.5 102 L 39.5 95 Z "></path><path fill="rgb(15,21,21)" stroke="rgb(15,21,21)" stroke-width="1" opacity="1" d="M 178 100 Q 181.3 98.9 180 103 Q 176.7 104.1 178 100 Z "></path><path fill="rgb(15,21,21)" stroke="rgb(15,21,21)" stroke-width="1" opacity="1" d="M 333.5 100 L 334 102 L 337 103.5 L 337 124.5 L 335.5 126 Q 333.3 125.3 334 127.5 L 333 127.5 L 333.5 100 Z "></path><path fill="rgb(15,21,21)" stroke="rgb(15,21,21)" stroke-width="1" opacity="1" d="M 37.5 102 L 38 104.5 L 37 104.5 L 37.5 102 Z "></path><path fill="rgb(15,21,21)" stroke="rgb(15,21,21)" stroke-width="1" opacity="1" d="M 172.5 102 L 173 104 Q 176 103 175 106 Q 172.3 107.1 173 104.5 L 172.5 102 Z "></path><path fill="rgb(15,21,21)" stroke="rgb(15,21,21)" stroke-width="1" opacity="1" d="M 98 105 L 111.5 105 L 112 107 L 99.5 107 L 99 108.5 L 96.5 110 L 91.5 109 L 87 111 L 87 109 Q 92.3 110.3 91.5 107 L 98 107 L 98 105 Z "></path><path fill="rgb(15,21,21)" stroke="rgb(15,21,21)" stroke-width="1" opacity="1" d="M 182.5 105 L 289.5 105 L 290 106.5 L 289 107.5 L 289 128.5 L 288 129.5 L 289 130.5 L 289 206.5 L 287.5 211 L 287 196.5 L 288 191.5 L 287 190.5 L 287 144.5 Q 289.2 143.2 288 138.5 L 287 137.5 L 287 129.5 L 288 128.5 L 288 116.5 L 287 115.5 L 287 107 L 184.5 107 L 182.5 105 Z "></path><path fill="rgb(15,21,21)" stroke="rgb(15,21,21)" stroke-width="1" opacity="1" d="M 179.5 106 L 180.5 108 L 178 107.5 L 179.5 106 Z "></path><path fill="rgb(15,21,21)" stroke="rgb(15,21,21)" stroke-width="1" opacity="1" d="M 115.5 107 Q 120.3 105.7 119 109 Q 115.2 109.8 115.5 107 Z "></path><path fill="rgb(15,21,21)" stroke="rgb(15,21,21)" stroke-width="1" opacity="1" d="M 175 107 Q 178.3 105.9 177 110 Q 173.7 111.1 175 107 Z "></path><path fill="rgb(15,21,21)" stroke="rgb(15,21,21)" stroke-width="1" opacity="1" d="M 120.5 109 L 124 109.5 L 121.5 111 L 120.5 109 Z "></path><path fill="rgb(15,21,21)" stroke="rgb(15,21,21)" stroke-width="1" opacity="1" d="M 101.5 110 L 108 110.5 L 101.5 111 L 101.5 110 Z "></path><path fill="rgb(15,21,21)" stroke="rgb(15,21,21)" stroke-width="1" opacity="1" d="M 183.5 110 L 198 110.5 Q 193.4 109.9 192 112.5 Q 189.8 118.8 195.5 117 L 197 118.5 L 197 163.5 L 195 167 L 192.5 166 L 192 180.5 L 193.5 180 L 196 181.5 L 197 183.5 L 197 201.5 L 194.5 205 L 192.5 204 L 192 207.5 L 193.5 207 L 197 209.5 L 197 239.5 L 196 240.5 L 196 261.5 Q 193.7 262.8 195 267.5 L 196 268.5 L 196 280.5 Q 193.2 284.8 187 284 L 187 287 L 178 287 L 179.5 284 L 182.5 282 L 188 278.5 L 189 274.5 L 189 141.5 L 188 140.5 L 187 125.5 L 183.5 110 Z "></path><path fill="rgb(15,21,21)" stroke="rgb(15,21,21)" stroke-width="1" opacity="1" d="M 274 110 L 285 110.5 L 275 111 L 275 115 L 280.5 115 L 281 115.5 L 281 140.5 L 281.5 142 Q 274.5 143.5 275 140.5 L 274 139.5 L 274 110 Z "></path><path fill="rgb(15,21,21)" stroke="rgb(15,21,21)" stroke-width="1" opacity="1" d="M 83 111 Q 87.1 109.7 86 113 L 83 113.5 L 84 116 Q 81.3 114.9 82 117.5 L 79 119 L 76.5 123 L 77.5 120 L 74 122.5 L 75 124.5 L 73.5 124 Q 70.9 124.7 72 122 L 74 122 L 74 119 L 76 119 Q 74.9 116.3 77.5 117 L 81 115 L 83 111 Z "></path><path fill="rgb(15,21,21)" stroke="rgb(15,21,21)" stroke-width="1" opacity="1" d="M 124 111 L 130 113 Q 128.9 115.7 131.5 115 L 131.5 116 L 127 115 Q 128.3 112 124.5 113 L 123 113.5 L 124 111 Z "></path><path fill="rgb(15,21,21)" stroke="rgb(15,21,21)" stroke-width="1" opacity="1" d="M 177.5 111 L 179 114 L 181 114 L 181 119 L 179 119 L 179 114.5 Q 175.8 115.3 177.5 111 Z "></path><path fill="rgb(15,21,21)" stroke="rgb(15,21,21)" stroke-width="1" opacity="1" d="M 31 112 Q 34 110.8 33 114.5 Q 29.8 115.9 31 121 L 29 121 L 29 128.5 L 27 129 L 26 122.5 L 29 120.5 L 31 112 Z "></path><path fill="rgb(15,21,21)" stroke="rgb(15,21,21)" stroke-width="1" opacity="1" d="M 118 114 L 125 117.5 L 121.5 118 L 118 117 L 118 114 Z "></path><path fill="rgb(15,21,21)" stroke="rgb(15,21,21)" stroke-width="1" opacity="1" d="M 86.5 116 Q 89.5 115.2 88 119 L 91 119 L 91 125.5 L 88 127 L 88 134 L 78.5 134 L 75 133 L 76 126.5 L 83.5 118 L 86.5 116 Z "></path><path fill="rgb(15,21,21)" stroke="rgb(15,21,21)" stroke-width="1" opacity="1" d="M 182.5 118 L 183.5 120 L 182 120.5 L 183 125 L 185 125.5 L 185 135 L 183 134.5 L 183 125.5 Q 179.8 126.5 181 120.5 L 182.5 118 Z "></path><path fill="rgb(15,21,21)" stroke="rgb(15,21,21)" stroke-width="1" opacity="1" d="M 134 119 Q 136.7 117.9 136 120.5 L 136.5 122 Q 132.3 123.1 134 119 Z "></path><path fill="rgb(15,21,21)" stroke="rgb(15,21,21)" stroke-width="1" opacity="1" d="M 70 125 Q 73 123.8 72 127.5 L 72.5 129 L 70 128 L 69.5 131 L 69 128.5 L 70 125 Z "></path><path fill="rgb(15,21,21)" stroke="rgb(15,21,21)" stroke-width="1" opacity="1" d="M 140.5 127 L 141 129.5 L 140 129.5 L 140.5 127 Z "></path><path fill="rgb(15,21,21)" stroke="rgb(15,21,21)" stroke-width="1" opacity="1" d="M 25 130 L 27 130.5 L 27 249.5 Q 30 248.5 29 253.5 L 27 252.5 L 26.5 250 L 25 250.5 Q 23.3 242.3 26 238.5 L 25 237.5 L 25 130 Z "></path><path fill="rgb(15,21,21)" stroke="rgb(15,21,21)" stroke-width="1" opacity="1" d="M 142.5 131 L 145 137.5 L 145 176.5 L 143.5 176 L 139.5 177 L 138.5 176 L 111.5 176 Q 110 178.5 104.5 177 L 100.5 176 L 96.5 177 L 95.5 175 L 99.5 174 L 101.5 175 L 102.5 174 L 140.5 174 L 141.5 173 L 142 175 L 144 174.5 L 144 137 L 141.5 138 L 141 134.5 L 142.5 131 Z M 126 165 L 125 168 L 126 169 L 131 169 Q 133 163 126 165 Z "></path><path fill="rgb(15,21,21)" stroke="rgb(15,21,21)" stroke-width="1" opacity="1" d="M 333.5 131 L 334 133 L 337 133.5 L 337 156 L 333.5 158 L 333.5 131 Z "></path><path fill="rgb(15,21,21)" stroke="rgb(15,21,21)" stroke-width="1" opacity="1" d="M 67.5 133 L 68 142 Q 64.5 143.1 66 135.5 L 67.5 133 Z "></path><path fill="rgb(15,21,21)" stroke="rgb(15,21,21)" stroke-width="1" opacity="1" d="M 185.5 136 L 187 137.5 L 187 186.5 L 187 188.5 L 187 196.5 L 186 197.5 L 187 198.5 L 187 213.5 L 187 215.5 L 187 267.5 L 186 271.5 L 187 275 L 185 274.5 L 185.5 136 Z "></path><path fill="rgb(15,21,21)" stroke="rgb(15,21,21)" stroke-width="1" opacity="1" d="M 65.5 145 L 66 186.5 L 65 186.5 L 65.5 145 Z "></path><path fill="rgb(15,21,21)" stroke="rgb(15,21,21)" stroke-width="1" opacity="1" d="M 139.5 146 L 141 148.5 L 141 172 L 95.5 172 Q 93.8 174.7 87.5 173 L 87.5 172 Q 93.8 173.3 95 169.5 Q 93.5 162.5 96.5 163 L 97.5 162 L 125 162 L 127.5 158 L 131 158 L 131 153 L 134.5 153 L 139 152 L 139.5 146 Z "></path><path fill="rgb(15,21,21)" stroke="rgb(15,21,21)" stroke-width="1" opacity="1" d="M 333.5 162 L 337 164.5 L 337 186.5 L 334 187 L 334 188.5 L 333 188.5 L 333.5 162 Z "></path><path fill="rgb(15,21,21)" stroke="rgb(15,21,21)" stroke-width="1" opacity="1" d="M 74 172 L 79 174.5 L 77.5 177 L 73.5 178 L 73 176.5 L 74 172 Z "></path><path fill="rgb(15,21,21)" stroke="rgb(15,21,21)" stroke-width="1" opacity="1" d="M 70.5 174 L 71 179.5 L 70 179.5 L 70.5 174 Z "></path><path fill="rgb(15,21,21)" stroke="rgb(15,21,21)" stroke-width="1" opacity="1" d="M 85 177 L 94 177.5 L 87.5 178 L 79.5 182 L 75 182 L 75 184 L 72 184 L 72 186 Q 68.3 184.5 69 187.5 L 68 187.5 L 69 184 L 72 184 Q 70.9 181.3 73.5 182 L 79 179.5 Q 78.2 176.9 81.5 178 L 85 179 L 85 177 Z "></path><path fill="rgb(15,21,21)" stroke="rgb(15,21,21)" stroke-width="1" opacity="1" d="M 283.5 191 Q 286.9 194.6 285 203.5 L 284 208 Q 279.5 206.3 281 211.5 L 276 214.5 L 278 215 Q 278.9 220.9 274.5 223 L 271.5 225 Q 270.5 228 265.5 227 Q 264.3 224.8 259.5 226 L 255.5 228 L 255 221.5 L 256.5 220 L 268 220 L 268.5 225 L 272.5 216 L 274 215.5 L 274 195.5 L 275 193 L 282.5 193 L 283.5 191 Z "></path><path fill="rgb(15,21,21)" stroke="rgb(15,21,21)" stroke-width="1" opacity="1" d="M 333.5 192 L 334 194 L 337 194.5 L 337 216.5 Q 334 217.5 335 222.5 L 338 224 L 338 247 L 325.5 247 L 325.5 246 Q 328.5 246.9 327 242.5 L 333 215.5 L 333.5 192 Z "></path><path fill="rgb(15,21,21)" stroke="rgb(15,21,21)" stroke-width="1" opacity="1" d="M 285 213 Q 288 212 287 215 Q 284 216 285 213 Z "></path><path fill="rgb(15,21,21)" stroke="rgb(15,21,21)" stroke-width="1" opacity="1" d="M 91.5 216 L 145 216 L 145 246.5 L 144 246.5 L 143 243.5 L 143 220.5 L 144 218.5 L 141.5 217 L 140.5 218 L 99.5 218 L 97.5 218 Q 91.1 219.3 91.5 216 Z M 108 223 L 108 224 L 132 224 L 108 223 Z "></path><path fill="rgb(15,21,21)" stroke="rgb(15,21,21)" stroke-width="1" opacity="1" d="M 283 217 Q 286 216 285 219 Q 282 220 283 217 Z "></path><path fill="rgb(15,21,21)" stroke="rgb(15,21,21)" stroke-width="1" opacity="1" d="M 85 218 L 91 218 L 91 220 Q 85 218.8 82.5 222 L 81.5 220 Q 86.3 221.3 85 218 Z "></path><path fill="rgb(15,21,21)" stroke="rgb(15,21,21)" stroke-width="1" opacity="1" d="M 101.5 220 Q 106.3 218.7 107.5 221 L 131.5 221 Q 133.3 218.2 139.5 220 L 141 221.5 L 141 233.5 L 139 234.5 L 138 227 L 133.5 226 L 105.5 226 L 104.5 227 L 94.5 227 L 90 225 Q 88.5 221.3 91.5 222 L 101.5 220 Z "></path><path fill="rgb(15,21,21)" stroke="rgb(15,21,21)" stroke-width="1" opacity="1" d="M 282.5 220 L 283 222 Q 280.3 220.9 281 223.5 L 278 225.5 L 279 223.5 L 277 222.5 Q 278.3 219.8 279.5 222 L 282.5 220 Z "></path><path fill="rgb(15,21,21)" stroke="rgb(15,21,21)" stroke-width="1" opacity="1" d="M 326 221 Q 329.3 219.7 328 224.5 L 326 231.5 L 324 233.5 L 324 236.5 L 321.5 240 L 321 237.5 L 322 233 Q 325.7 234.3 324 228.5 Q 327.5 226.8 326 221 Z "></path><path fill="rgb(15,21,21)" stroke="rgb(15,21,21)" stroke-width="1" opacity="1" d="M 211.5 223 L 226.5 223 L 227 224.5 L 228 227.5 L 226.5 229 L 219 229 L 219 231 L 226.5 231 L 227 233 L 200.5 233 L 200 231 L 209 230 Q 207.8 224.5 211.5 223 Z "></path><path fill="rgb(15,21,21)" stroke="rgb(15,21,21)" stroke-width="1" opacity="1" d="M 76.5 224 L 77 225.5 L 74.5 227 L 74.5 226 Q 77 226.7 76.5 224 Z "></path><path fill="rgb(15,21,21)" stroke="rgb(15,21,21)" stroke-width="1" opacity="1" d="M 275.5 226 Q 277.8 225.3 277 227.5 L 273 230 L 273 232 L 269 232 Q 270.1 235.3 266 234 L 266 232 L 269 232 L 269 230 Q 272.8 231.5 272 228.5 L 275.5 226 Z "></path><path fill="rgb(15,21,21)" stroke="rgb(15,21,21)" stroke-width="1" opacity="1" d="M 76.5 228 L 77 230 L 74 229.5 L 76.5 228 Z "></path><path fill="rgb(15,21,21)" stroke="rgb(15,21,21)" stroke-width="1" opacity="1" d="M 70 231 L 73 232.5 L 72.5 234 L 70 233 Q 71.7 238.2 68 237 L 70 231 Z "></path><path fill="rgb(15,21,21)" stroke="rgb(15,21,21)" stroke-width="1" opacity="1" d="M 80.5 231 L 84 232.5 L 84 241 L 77 241 L 78 232 L 80.5 231 Z "></path><path fill="rgb(15,21,21)" stroke="rgb(15,21,21)" stroke-width="1" opacity="1" d="M 261 234 Q 265.1 232.7 264 236 Q 259.9 237.3 261 234 Z "></path><path fill="rgb(15,21,21)" stroke="rgb(15,21,21)" stroke-width="1" opacity="1" d="M 208.5 235 Q 213.3 233.7 214.5 236 L 256 236.5 L 203.5 237 L 203.5 236 L 208.5 235 Z "></path><path fill="rgb(15,21,21)" stroke="rgb(15,21,21)" stroke-width="1" opacity="1" d="M 67.5 238 L 68 244.5 L 66 248.5 L 66 273 L 69 273.5 L 67.5 275 L 65 274.5 L 65 248.5 Q 67.8 246.8 66 240.5 L 67.5 238 Z "></path><path fill="rgb(15,21,21)" stroke="rgb(15,21,21)" stroke-width="1" opacity="1" d="M 201 238 Q 204.5 236.9 203 244.5 Q 200.5 246 204 247.5 L 204 251.5 L 207 256.5 L 204.5 258 L 203.5 254 L 202 254.5 L 203 253.5 L 203 247 L 201 246.5 L 201 238 Z "></path><path fill="rgb(15,21,21)" stroke="rgb(15,21,21)" stroke-width="1" opacity="1" d="M 71.5 242 L 72 247.5 L 71 247.5 L 71.5 242 Z "></path><path fill="rgb(15,21,21)" stroke="rgb(15,21,21)" stroke-width="1" opacity="1" d="M 317.5 243 L 318 245.5 L 317 245.5 L 317.5 243 Z "></path><path fill="rgb(15,21,21)" stroke="rgb(15,21,21)" stroke-width="1" opacity="1" d="M 73.5 246 L 74 257.5 L 73 257.5 L 73.5 246 Z "></path><path fill="rgb(15,21,21)" stroke="rgb(15,21,21)" stroke-width="1" opacity="1" d="M 140.5 246 L 146 262.5 L 150.5 268 Q 152.8 267.3 152 269.5 L 162 276 Q 163.3 279.3 158.5 278 L 154 279 Q 154.9 274.3 152.5 272 Q 151 274.5 149.5 271 Q 146.5 271.9 148 267.5 Q 146.5 263.8 141 265 L 140 259.5 L 140.5 246 Z "></path><path fill="rgb(15,21,21)" stroke="rgb(15,21,21)" stroke-width="1" opacity="1" d="M 318.5 247 L 319 248.5 L 317 249.5 L 318.5 247 Z "></path><path fill="rgb(15,21,21)" stroke="rgb(15,21,21)" stroke-width="1" opacity="1" d="M 145 248 Q 148.7 246.7 147 252.5 Q 150 253.8 149 258 L 151 258 L 151 260 Q 153.7 258.9 153 261.5 L 150.5 260 Q 148.3 260.8 149 258.5 L 147 258.5 L 148 256.5 L 145 255 L 145 248 Z "></path><path fill="rgb(15,21,21)" stroke="rgb(15,21,21)" stroke-width="1" opacity="1" d="M 313.5 249 L 314 252 Q 311.3 250.9 312 253.5 L 311 253.5 L 311 251 Q 313.8 252 313.5 249 Z "></path><path fill="rgb(15,21,21)" stroke="rgb(15,21,21)" stroke-width="1" opacity="1" d="M 199.5 254 L 200 257.5 L 199 257.5 L 199.5 254 Z "></path><path fill="rgb(15,21,21)" stroke="rgb(15,21,21)" stroke-width="1" opacity="1" d="M 307.5 255 L 309 256.5 L 305.5 260 L 303 258.5 L 307.5 255 Z "></path><path fill="rgb(15,21,21)" stroke="rgb(15,21,21)" stroke-width="1" opacity="1" d="M 29 256 Q 31.7 254.9 31 257.5 L 36 264.5 L 34 265 L 35.5 268 Q 37.8 268.8 37 266.5 L 40 268.5 L 37.5 270 L 32 265.5 L 33 261 L 29 258.5 L 29 256 Z "></path><path fill="rgb(15,21,21)" stroke="rgb(15,21,21)" stroke-width="1" opacity="1" d="M 209.5 260 L 212 265 L 209.5 266 L 209.5 260 Z "></path><path fill="rgb(15,21,21)" stroke="rgb(15,21,21)" stroke-width="1" opacity="1" d="M 301.5 260 Q 303.8 259.3 303 261.5 L 304 263.5 L 303 263.5 L 301.5 260 Z "></path><path fill="rgb(15,21,21)" stroke="rgb(15,21,21)" stroke-width="1" opacity="1" d="M 334.5 260 L 335 277.5 L 332.5 280 L 316 280 L 316 272.5 Q 313.4 271.1 314 266.5 L 311 263.5 L 312.5 263 L 317 267.5 L 317 278 Q 320.7 279.2 319 274 L 324 274 L 324 265.5 L 325.5 265 Q 327 262.5 332.5 264 L 334 262.5 L 334.5 260 Z "></path><path fill="rgb(15,21,21)" stroke="rgb(15,21,21)" stroke-width="1" opacity="1" d="M 70 262 L 75 262.5 L 75 280 Q 70.4 281.3 69 278.5 L 70 275.5 L 70 262 Z "></path><path fill="rgb(15,21,21)" stroke="rgb(15,21,21)" stroke-width="1" opacity="1" d="M 299 262 Q 302 261 301 264 L 296.5 265 L 296.5 264 Q 300.3 265 299 262 Z "></path><path fill="rgb(15,21,21)" stroke="rgb(15,21,21)" stroke-width="1" opacity="1" d="M 153 263 L 157 265 L 157 268 L 159.5 268 L 159.5 269 Q 154.8 268.8 153 265.5 L 153 263 Z "></path><path fill="rgb(15,21,21)" stroke="rgb(15,21,21)" stroke-width="1" opacity="1" d="M 213.5 265 L 214 267 L 220 270.5 L 215.5 272 L 216 270.5 Q 216.8 268.3 214.5 269 Q 212 268 213.5 265 Z "></path><path fill="rgb(15,21,21)" stroke="rgb(15,21,21)" stroke-width="1" opacity="1" d="M 293 266 L 296 266.5 L 293 268 L 293 266 Z "></path><path fill="rgb(15,21,21)" stroke="rgb(15,21,21)" stroke-width="1" opacity="1" d="M 68.5 267 L 69 269.5 L 68 269.5 L 68.5 267 Z "></path><path fill="rgb(15,21,21)" stroke="rgb(15,21,21)" stroke-width="1" opacity="1" d="M 289.5 268 L 292 268.5 L 289.5 269 L 289.5 268 Z "></path><path fill="rgb(15,21,21)" stroke="rgb(15,21,21)" stroke-width="1" opacity="1" d="M 41.5 269 L 42.5 271 Q 39.7 271.7 41.5 269 Z "></path><path fill="rgb(15,21,21)" stroke="rgb(15,21,21)" stroke-width="1" opacity="1" d="M 160.5 270 L 165 272.5 L 163.5 273 L 160.5 270 Z "></path><path fill="rgb(15,21,21)" stroke="rgb(15,21,21)" stroke-width="1" opacity="1" d="M 285.5 270 Q 289.9 268.5 289 271.5 L 287.5 271 L 280.5 273 L 280.5 272 L 285.5 270 Z "></path><path fill="rgb(15,21,21)" stroke="rgb(15,21,21)" stroke-width="1" opacity="1" d="M 45.5 271 L 46 273 L 44 272.5 L 45.5 271 Z "></path><path fill="rgb(15,21,21)" stroke="rgb(15,21,21)" stroke-width="1" opacity="1" d="M 47 273 Q 51.3 272 50.5 275 L 57 275 L 57 277 L 47 275 L 47 273 Z "></path><path fill="rgb(15,21,21)" stroke="rgb(15,21,21)" stroke-width="1" opacity="1" d="M 275.5 273 L 279 274.5 L 276 275.5 L 276.5 277 L 271.5 278 L 270.5 277 L 262.5 277 L 261 275.5 L 272.5 275 L 275.5 273 Z "></path><path fill="rgb(15,21,21)" stroke="rgb(15,21,21)" stroke-width="1" opacity="1" d="M 166.5 274 L 178 275 L 177.5 278 Q 175.8 275.3 169.5 277 L 166.5 274 Z "></path><path fill="rgb(15,21,21)" stroke="rgb(15,21,21)" stroke-width="1" opacity="1" d="M 225.5 274 L 234 275 Q 235.3 278.7 229.5 277 L 225.5 275 L 225.5 274 Z "></path><path fill="rgb(15,21,21)" stroke="rgb(15,21,21)" stroke-width="1" opacity="1" d="M 185.5 276 L 186 278 L 183.5 279 L 182.5 277 L 185.5 276 Z "></path><path fill="rgb(15,21,21)" stroke="rgb(15,21,21)" stroke-width="1" opacity="1" d="M 236.5 277 L 255 277.5 L 236.5 278 L 236.5 277 Z "></path><path fill="rgb(15,21,21)" stroke="rgb(15,21,21)" stroke-width="1" opacity="1" d="M 163 278 L 176 280.5 Q 173 281.8 174 286 Q 171.3 287.9 164.5 287 L 163 285.5 L 163 278 Z "></path><path fill="rgb(15,21,21)" stroke="rgb(15,21,21)" stroke-width="1" opacity="1" d="M 275.5 278 Q 280.9 276.1 280 279.5 Q 278.4 282.5 273 281 L 272.5 285 L 272 282 L 268 280.5 L 275.5 278 Z "></path><path fill="rgb(15,21,21)" stroke="rgb(15,21,21)" stroke-width="1" opacity="1" d="M 223 279 L 231 280.5 L 230 282.5 L 234 285.5 L 233.5 287 L 223 287 L 221 282.5 L 223 282 L 223 279 Z "></path><path fill="rgb(15,21,21)" stroke="rgb(15,21,21)" stroke-width="1" opacity="1" d="M 258.5 282 L 259 284 L 265 285 L 264.5 287 L 254 287 Q 252.8 283.3 258 285 L 258.5 282 Z "></path><path fill="rgb(16,23,23)" stroke="rgb(16,23,23)" stroke-width="1" opacity="1" d="M 357.5 1 L 360 1.5 L 357.5 2 L 357.5 1 Z "></path><path fill="rgb(16,23,23)" stroke="rgb(16,23,23)" stroke-width="1" opacity="1" d="M 3 3 Q 6 2 5 5 Q 2 6 3 3 Z "></path><path fill="rgb(16,23,23)" stroke="rgb(16,23,23)" stroke-width="1" opacity="1" d="M 357 3 Q 361.1 1.7 360 5 Q 355.9 6.3 357 3 Z "></path><path fill="rgb(16,23,23)" stroke="rgb(16,23,23)" stroke-width="1" opacity="1" d="M 0 21 L 360 21 L 360 311 L 0 311 L 0 21 Z M 117 51 Q 112 53 113 60 L 125 58 L 134 58 L 136 60 L 136 54 L 134 51 L 117 51 Z M 211 53 L 211 59 L 222 59 L 222 53 L 211 53 Z M 304 53 Q 301 54 302 59 L 314 58 L 314 53 L 304 53 Z M 81 54 L 78 57 L 78 65 L 91 63 L 92 60 L 92 54 L 81 54 Z M 149 55 L 148 56 Q 144 55 146 59 L 150 61 L 153 61 L 154 57 Q 153 54 149 55 Z M 318 55 L 318 58 L 320 59 L 323 58 L 332 59 L 332 55 L 318 55 Z M 98 63 L 98 64 L 100 64 L 98 63 Z M 110 63 L 110 64 L 114 64 L 110 63 Z M 153 63 Q 153 67 151 66 Q 149 64 148 67 L 149 70 L 150 68 L 151 71 L 150 71 L 151 73 L 154 72 L 153 74 Q 158 73 159 77 L 158 77 L 158 78 L 161 77 Q 164 78 163 82 L 165 81 L 168 87 Q 169 93 166 94 Q 161 92 164 91 L 159 88 L 160 85 L 158 86 L 158 85 L 157 81 L 152 80 L 149 80 Q 150 76 147 77 L 147 79 L 146 74 L 145 74 L 140 72 L 136 73 L 133 72 L 135 71 L 135 70 Q 128 72 129 68 L 125 69 L 123 66 L 114 66 L 113 67 L 102 66 L 101 65 L 97 66 Q 88 67 85 65 Q 84 68 87 67 L 87 69 Q 86 66 82 67 Q 79 68 81 70 L 77 70 L 77 72 Q 74 73 75 71 L 74 71 Q 75 73 71 72 L 71 70 L 70 73 L 68 74 L 68 76 L 67 75 L 65 76 L 65 78 L 63 79 Q 64 76 61 77 L 62 80 L 61 79 L 59 80 L 59 82 L 58 81 Q 55 80 56 83 L 54 83 L 54 87 L 53 85 L 52 88 L 50 89 L 47 91 L 43 97 L 40 95 L 39 103 L 38 102 L 37 107 L 36 106 L 35 110 L 33 110 L 34 112 L 31 112 L 32 117 L 29 118 L 30 122 L 26 122 L 28 130 L 25 130 L 25 238 L 26 239 L 24 250 L 26 251 L 28 250 L 27 253 L 31 256 L 29 256 Q 28 260 32 261 Q 34 260 33 264 L 36 265 L 36 263 Q 38 264 37 268 L 40 269 L 39 266 Q 42 267 41 271 L 44 270 L 45 273 L 47 272 L 47 275 L 51 274 L 50 276 L 55 277 Q 58 278 57 276 L 59 276 Q 65 277 67 274 L 68 276 L 69 274 L 66 273 L 66 249 L 65 248 L 66 246 L 67 248 Q 69 245 68 239 L 68 237 L 70 237 Q 68 232 72 233 L 73 235 L 73 233 L 70 231 L 72 230 L 73 227 L 76 227 L 75 226 L 75 225 L 77 226 L 77 225 L 81 222 L 83 222 L 85 221 L 85 219 L 91 220 Q 92 217 90 218 L 90 217 L 98 218 L 100 218 L 141 218 L 142 217 L 144 219 L 143 221 L 143 240 L 142 241 Q 141 245 144 244 L 145 247 L 146 242 L 147 248 L 145 248 L 145 255 L 147 255 L 149 258 L 149 257 L 151 258 L 149 258 Q 148 261 151 260 L 156 268 Q 158 269 157 267 L 159 268 L 157 269 L 161 269 L 160 271 L 165 273 L 165 271 L 171 275 L 170 274 L 166 275 L 170 277 Q 176 275 178 278 L 178 277 L 180 277 Q 184 278 185 274 L 187 275 L 186 272 L 187 268 L 187 271 L 188 271 L 187 266 L 188 264 L 188 254 L 187 253 L 187 220 L 188 219 L 188 208 L 187 207 L 188 205 L 187 200 Q 189 198 188 194 L 188 192 L 188 173 L 187 172 Q 186 167 188 166 L 188 155 L 187 154 L 188 150 L 187 138 L 186 136 L 185 142 L 183 137 Q 182 134 185 135 L 185 126 L 183 125 L 183 127 L 182 125 Q 185 126 183 122 L 180 120 L 180 119 Q 183 120 181 116 L 182 114 L 178 115 L 178 114 Q 180 115 179 113 L 177 111 L 177 110 Q 178 106 175 107 L 175 106 Q 176 103 173 104 L 173 102 L 169 100 L 170 98 L 171 100 L 173 97 L 172 93 Q 169 94 170 91 Q 173 90 172 93 L 175 94 L 174 97 L 177 96 L 176 98 Q 175 100 179 99 L 178 101 Q 177 104 181 103 L 182 106 L 185 107 L 287 107 L 289 129 L 290 116 L 290 129 L 290 131 L 290 201 L 289 131 L 287 130 L 287 138 L 288 139 Q 289 143 287 145 L 287 191 L 288 192 L 287 197 L 287 213 L 285 213 L 286 216 L 283 217 L 284 220 L 283 220 L 282 223 L 280 222 Q 278 220 277 223 L 279 224 L 278 226 Q 280 227 278 228 L 277 225 L 272 229 Q 273 232 269 230 L 270 234 L 269 234 Q 270 231 266 232 L 265 236 L 264 234 L 263 234 Q 260 233 261 236 L 259 237 L 256 236 L 215 236 L 214 235 L 203 237 L 255 237 L 255 238 L 201 238 L 200 241 L 201 244 Q 199 248 203 247 L 203 245 Q 205 246 203 248 L 204 258 L 206 257 L 208 258 L 207 260 L 209 259 L 210 266 L 213 264 L 215 269 Q 217 268 216 271 L 216 272 L 218 271 Q 222 269 221 273 L 223 272 L 226 273 L 226 275 L 228 274 L 227 276 L 230 277 Q 235 279 234 275 L 238 277 L 237 277 L 237 278 L 255 278 L 259 276 L 261 276 L 272 278 L 277 277 L 276 276 L 279 275 L 280 272 L 280 274 L 284 275 L 285 270 L 288 271 L 289 273 L 289 270 L 287 270 L 292 269 L 291 268 L 293 267 Q 292 269 295 268 Q 297 267 295 266 L 299 265 L 298 264 L 300 264 Q 302 265 301 262 L 303 262 L 304 259 L 306 260 L 309 257 L 307 255 L 311 252 L 311 254 L 312 254 Q 311 251 314 252 L 314 250 L 314 248 Q 317 249 316 246 L 318 246 L 318 242 L 322 236 L 321 238 L 322 240 L 326 232 L 328 221 L 326 221 Q 327 218 329 220 L 330 219 L 330 170 L 330 168 L 330 109 L 331 108 L 330 107 L 330 73 L 329 69 L 325 65 Q 320 64 319 66 L 303 66 L 302 65 Q 296 64 295 66 L 230 66 L 229 65 L 217 65 L 216 66 Q 211 67 210 65 Q 205 64 204 66 L 154 66 L 153 63 Z M 322 63 L 322 64 L 326 64 L 322 63 Z M 58 64 Q 56 67 57 74 L 66 71 L 68 69 L 66 66 L 65 64 L 58 64 Z M 103 64 L 103 65 L 106 65 L 103 64 Z M 334 75 L 334 97 L 337 95 L 337 78 L 334 77 L 334 75 Z M 153 76 L 152 78 L 154 77 L 153 76 Z M 154 78 L 154 80 L 157 79 L 154 78 Z M 44 79 L 45 85 L 49 82 L 49 79 L 44 79 Z M 50 84 L 48 86 L 51 87 Q 52 83 50 84 Z M 34 90 L 35 98 Q 38 97 37 92 L 34 90 Z M 29 97 L 27 99 L 27 101 L 17 101 L 15 103 L 15 126 L 18 127 Q 17 132 20 135 L 20 245 L 18 249 L 18 262 L 21 263 L 26 263 L 26 272 L 30 272 L 33 279 Q 38 280 39 277 L 39 274 L 37 274 Q 38 271 36 272 L 26 261 L 22 247 L 22 134 L 24 129 Q 25 122 23 123 L 21 124 L 21 114 L 24 111 Q 28 112 26 108 L 28 108 L 31 104 Q 30 100 33 101 L 34 98 L 29 97 Z M 334 100 L 333 128 L 334 128 Q 333 125 336 126 L 337 125 L 337 104 L 334 102 L 334 100 Z M 180 106 L 178 108 L 181 108 L 180 106 Z M 193 108 L 193 109 L 210 109 L 193 108 Z M 184 110 L 187 126 L 188 141 L 189 142 L 189 275 L 188 279 L 183 282 L 180 284 L 178 287 L 187 287 L 187 284 Q 193 285 196 281 L 196 269 L 195 268 Q 194 263 196 262 L 196 241 L 197 240 L 197 210 L 194 207 L 192 208 L 193 204 L 195 205 L 197 202 L 197 184 L 196 182 L 194 180 L 192 181 L 193 166 L 195 167 L 197 164 L 197 119 L 196 117 Q 190 119 192 113 Q 193 110 198 111 L 184 110 Z M 274 110 L 274 140 L 275 141 Q 275 143 282 142 L 281 141 L 281 116 L 281 115 L 275 115 L 275 111 L 285 111 L 274 110 Z M 183 118 L 182 120 L 184 121 L 183 118 Z M 334 131 L 334 158 L 337 156 L 337 134 L 334 133 L 334 131 Z M 334 162 L 333 189 L 334 189 L 334 187 L 337 187 L 337 165 L 334 162 Z M 284 191 L 283 193 L 275 193 L 274 196 L 274 216 L 273 216 L 269 225 L 268 220 L 257 220 L 255 222 L 256 228 L 260 226 Q 264 225 266 227 Q 271 228 272 225 L 275 223 Q 279 221 278 215 L 276 215 L 281 212 Q 280 206 284 208 L 285 204 Q 287 195 284 191 Z M 334 192 L 333 216 L 327 243 Q 329 247 326 246 L 326 247 L 338 247 L 338 224 L 335 223 Q 334 218 337 217 L 337 195 L 334 194 L 334 192 Z M 102 220 L 92 222 Q 89 221 90 225 L 95 227 L 105 227 L 106 226 L 134 226 L 138 227 L 139 235 L 141 234 L 141 222 L 140 220 Q 133 218 132 221 L 108 221 Q 106 219 102 220 Z M 212 223 Q 208 225 209 230 L 200 231 L 201 233 L 227 233 L 227 231 L 219 231 L 219 229 L 227 229 L 228 228 L 227 225 L 227 223 L 212 223 Z M 77 228 L 74 230 L 77 230 L 77 228 Z M 81 231 L 78 232 L 77 241 L 84 241 L 84 233 L 81 231 Z M 72 242 L 71 248 L 72 248 L 72 242 Z M 74 246 L 73 258 L 74 258 L 74 246 Z M 141 246 L 140 260 L 141 265 Q 147 264 148 268 Q 146 272 150 271 Q 151 274 153 272 Q 155 274 154 279 L 159 278 Q 163 279 162 276 L 152 270 Q 153 267 151 268 L 146 263 L 141 246 Z M 319 247 L 317 250 L 319 249 L 319 247 Z M 200 254 L 199 258 L 200 258 L 200 254 Z M 335 260 L 334 263 L 333 264 Q 327 263 326 265 L 324 266 L 324 274 L 319 274 Q 321 279 317 278 L 317 268 L 313 263 L 311 264 L 314 267 Q 313 271 316 273 L 316 280 L 333 280 L 335 278 L 335 260 Z M 70 262 L 70 276 L 69 279 Q 70 281 75 280 L 75 263 L 70 262 Z M 69 263 L 68 270 L 69 270 L 69 263 Z M 33 264 L 32 266 L 34 267 L 33 264 Z M 186 276 L 183 277 L 184 279 L 186 278 L 186 276 Z M 163 278 L 163 286 L 165 287 Q 171 288 174 286 Q 173 282 176 281 L 163 278 Z M 276 278 L 268 281 L 272 282 L 273 285 L 273 281 Q 278 282 280 280 Q 281 276 276 278 Z M 223 279 L 223 282 L 221 283 L 223 287 L 234 287 L 234 286 L 230 283 L 231 281 L 223 279 Z M 238 279 L 238 280 L 258 280 L 238 279 Z M 259 282 L 258 285 Q 253 283 254 287 L 265 287 L 265 285 L 259 284 L 259 282 Z "></path><path fill="rgb(16,23,23)" stroke="rgb(16,23,23)" stroke-width="1" opacity="1" d="M 117.5 67 L 120 67.5 L 117.5 68 L 117.5 67 Z "></path><path fill="rgb(16,23,23)" stroke="rgb(16,23,23)" stroke-width="1" opacity="1" d="M 169.5 94 L 171 96.5 L 169.5 97 L 167 95.5 L 169.5 94 Z "></path><path fill="rgb(16,23,23)" stroke="rgb(16,23,23)" stroke-width="1" opacity="1" d="M 41.5 98 L 40.5 100 L 41.5 98 Z "></path><path fill="rgb(16,23,23)" stroke="rgb(16,23,23)" stroke-width="1" opacity="1" d="M 112.5 105 L 113 107 L 119 109 L 119.5 107 L 121.5 111 L 123.5 110 L 124 113 L 127 113 Q 125.8 116 129.5 115 L 131 114.5 L 130.5 116 L 133 116.5 L 132.5 118 L 136 118.5 L 134 119 Q 132.3 123.1 136.5 122 L 136.5 120 L 141 126.5 L 140 129.5 L 141 129.5 L 141.5 128 L 143 130.5 L 141 137.5 L 142.5 137 L 144.5 136 L 144 137.5 L 144 174.5 L 142 175 L 141.5 173 L 140.5 174 L 102.5 174 L 100.5 175 L 98.5 174 L 95 175.5 L 96 178 Q 92.6 175.9 85 177 L 86 179.5 L 84.5 179 L 80.5 177 L 77.5 181 L 72 182 L 73 184.5 L 71.5 184 Q 68.2 182.9 69 185.5 L 66.5 190 L 65 187.5 L 66 186.5 L 66 145.5 L 65 141.5 L 66.5 142 L 68 141.5 L 68 133.5 L 68 131.5 L 68.5 128 L 69.5 131 L 70 128 Q 73.3 129.1 72 125 L 70 124.5 L 74 124 Q 75.1 121.3 72.5 122 L 72.5 121 L 74.5 122 L 77.5 120 L 79 120.5 Q 78.3 118.3 80.5 119 L 82 116 Q 84.7 117.1 84 114.5 L 82.5 112 L 86 113 L 86.5 109 L 87 111 L 91 109.5 L 90.5 108 L 97.5 110 L 99 107 L 111.5 107 L 112.5 105 Z M 102 110 L 102 111 L 108 111 L 102 110 Z M 118 114 L 118 117 L 122 118 L 125 118 L 118 114 Z M 87 116 L 84 118 L 76 127 L 75 133 L 79 134 L 88 134 L 88 127 L 91 126 L 91 119 L 88 119 Q 89 115 87 116 Z M 140 146 L 139 152 L 135 153 L 131 153 L 131 158 L 128 158 L 125 162 L 98 162 L 97 163 Q 94 163 95 170 Q 94 173 88 172 L 88 173 Q 94 175 96 172 L 141 172 L 141 149 L 140 146 Z M 143 158 L 142 163 L 143 163 L 143 158 Z M 143 165 L 142 168 L 143 168 L 143 165 Z M 143 169 L 142 172 L 143 172 L 143 169 Z M 74 172 L 73 177 L 74 178 L 78 177 L 79 175 L 74 172 Z M 71 174 L 70 180 L 71 180 L 71 174 Z M 69 175 L 68 178 L 69 178 L 69 175 Z "></path><path fill="rgb(16,23,23)" stroke="rgb(16,23,23)" stroke-width="1" opacity="1" d="M 126 165 Q 133.1 162.6 131 169 L 125.5 169 L 125 167.5 L 126 165 Z "></path><path fill="rgb(16,23,23)" stroke="rgb(16,23,23)" stroke-width="1" opacity="1" d="M 100.5 176 L 104 176.5 L 100.5 177 L 100.5 176 Z "></path><path fill="rgb(16,23,23)" stroke="rgb(16,23,23)" stroke-width="1" opacity="1" d="M 111.5 176 L 139 176.5 L 111.5 177 L 111.5 176 Z "></path><path fill="rgb(16,23,23)" stroke="rgb(16,23,23)" stroke-width="1" opacity="1" d="M 87.5 178 L 90 178.5 L 87.5 179 L 87.5 178 Z "></path><path fill="rgb(16,23,23)" stroke="rgb(16,23,23)" stroke-width="1" opacity="1" d="M 288.5 207 L 289 209.5 L 288 209.5 L 288.5 207 Z "></path><path fill="rgb(16,23,23)" stroke="rgb(16,23,23)" stroke-width="1" opacity="1" d="M 107.5 223 L 132 223.5 L 107.5 224 L 107.5 223 Z "></path><path fill="rgb(16,23,23)" stroke="rgb(16,23,23)" stroke-width="1" opacity="1" d="M 325.5 226 L 324.5 228 L 325.5 226 Z "></path><path fill="rgb(16,23,23)" stroke="rgb(16,23,23)" stroke-width="1" opacity="1" d="M 147.5 252 L 148.5 254 L 147.5 252 Z "></path><path fill="rgb(16,23,23)" stroke="rgb(16,23,23)" stroke-width="1" opacity="1" d="M 217.5 268 L 218.5 270 L 217.5 268 Z "></path></svg>