<?xml version="1.0" encoding="UTF-8"?>
<svg xmlns="http://www.w3.org/2000/svg" xmlns:xlink="http://www.w3.org/1999/xlink" width="65px" height="64px" viewBox="0 0 64 64" version="1.1">
<g id="surface1">
<path style=" stroke:none;fill-rule:nonzero;fill:rgb(42.745098%,70.196078%,24.705882%);fill-opacity:1;" d="M 9.734375 8.96875 C 22.378906 -3.28125 42.597656 -2.949219 54.847656 9.761719 C 56.230469 7.914062 57.417969 5.875 58.273438 3.765625 C 62.292969 16.015625 64.726562 26.289062 63.804688 34.257812 C 63.34375 40.976562 60.710938 47.429688 56.363281 52.566406 C 45.035156 66.003906 24.882812 67.714844 11.449219 56.386719 L 11.191406 56.160156 L 11.175781 56.152344 C 11.136719 56.121094 11.09375 56.089844 11.054688 56.058594 C 10.929688 55.964844 10.820312 55.859375 10.71875 55.75 L 10.683594 55.707031 L 10.261719 55.335938 C 9.851562 54.984375 9.441406 54.632812 9.078125 54.234375 L 8.945312 54.082031 C -3.304688 41.4375 -2.910156 21.21875 9.734375 8.96875 Z M 14.476562 51.84375 C 13.292969 50.921875 11.578125 51.054688 10.65625 52.238281 C 9.847656 53.28125 9.851562 54.730469 10.671875 55.691406 L 10.683594 55.707031 L 11.191406 56.160156 L 11.242188 56.195312 C 12.390625 56.949219 13.941406 56.792969 14.824219 55.722656 L 14.871094 55.664062 C 15.796875 54.476562 15.597656 52.765625 14.476562 51.84375 Z M 57.945312 7.058594 C 54.652344 13.976562 46.484375 19.242188 39.4375 20.890625 C 32.785156 22.472656 26.992188 21.152344 20.867188 23.523438 C 6.902344 28.859375 7.167969 45.457031 14.808594 49.210938 L 15.269531 49.472656 C 15.269531 49.472656 20.785156 48.375 26.242188 46.925781 L 26.710938 46.800781 C 28.890625 46.214844 31.035156 45.574219 32.785156 44.929688 C 41.875 41.570312 51.886719 33.273438 55.179688 23.65625 C 53.464844 33.667969 44.839844 43.347656 36.210938 47.761719 C 31.601562 50.132812 28.042969 50.660156 20.472656 53.292969 C 19.550781 53.621094 18.824219 53.953125 18.824219 53.953125 C 18.917969 53.9375 19.007812 53.925781 19.101562 53.914062 L 19.46875 53.867188 C 21.140625 53.660156 22.644531 53.554688 22.644531 53.554688 C 33.378906 53.03125 50.238281 56.585938 58.078125 46.113281 C 66.109375 35.445312 61.632812 18.191406 57.945312 7.058594 Z M 57.945312 7.058594 "/>
<path style=" stroke:none;fill-rule:nonzero;fill:rgb(100%,100%,100%);fill-opacity:1;" d="M 14.476562 51.84375 C 15.597656 52.765625 15.796875 54.476562 14.871094 55.664062 C 13.949219 56.847656 12.238281 56.980469 11.054688 56.058594 C 9.867188 55.136719 9.734375 53.425781 10.65625 52.238281 C 11.578125 51.054688 13.292969 50.921875 14.476562 51.84375 Z M 57.945312 7.058594 C 61.632812 18.191406 66.109375 35.445312 58.078125 46.113281 C 50.238281 56.585938 33.378906 53.03125 22.644531 53.554688 C 22.644531 53.554688 21.140625 53.660156 19.46875 53.867188 L 19.285156 53.890625 C 19.132812 53.910156 18.976562 53.929688 18.824219 53.953125 C 18.824219 53.953125 19.550781 53.621094 20.472656 53.292969 C 28.042969 50.660156 31.601562 50.132812 36.210938 47.761719 C 44.839844 43.347656 53.464844 33.667969 55.179688 23.65625 C 51.886719 33.273438 41.875 41.570312 32.785156 44.929688 C 26.53125 47.234375 15.269531 49.472656 15.269531 49.472656 L 14.808594 49.210938 C 7.167969 45.457031 6.902344 28.859375 20.867188 23.523438 C 26.992188 21.152344 32.785156 22.472656 39.4375 20.890625 C 46.484375 19.242188 54.652344 13.976562 57.945312 7.058594 Z M 57.945312 7.058594 "/>
</g>
</svg>
