<?xml version="1.0" encoding="UTF-8"?>
<svg xmlns="http://www.w3.org/2000/svg" xmlns:xlink="http://www.w3.org/1999/xlink" width="65px" height="64px" viewBox="0 0 64 64" version="1.1">
<g id="surface1">
<path style=" stroke:none;fill-rule:nonzero;fill:rgb(36.470588%,52.941176%,63.137255%);fill-opacity:1;" d="M 19.589844 45.644531 L 17.859375 45.644531 C 17.796875 42.722656 17.628906 39.972656 17.351562 37.394531 L 17.335938 37.394531 L 14.699219 45.644531 L 13.378906 45.644531 L 10.757812 37.394531 L 10.742188 37.394531 C 10.546875 39.871094 10.425781 42.621094 10.375 45.644531 L 8.792969 45.644531 C 8.898438 41.964844 9.152344 38.515625 9.5625 35.292969 L 11.707031 35.292969 L 14.207031 42.902344 L 14.222656 42.902344 L 16.738281 35.292969 L 18.792969 35.292969 C 19.242188 39.066406 19.507812 42.519531 19.589844 45.644531 M 27.105469 38.007812 C 26.398438 41.835938 25.46875 44.617188 24.3125 46.355469 C 23.414062 47.691406 22.425781 48.359375 21.355469 48.359375 C 21.066406 48.359375 20.714844 48.273438 20.296875 48.101562 L 20.296875 47.179688 C 20.5 47.207031 20.742188 47.226562 21.015625 47.226562 C 21.519531 47.226562 21.921875 47.085938 22.226562 46.8125 C 22.597656 46.472656 22.78125 46.09375 22.78125 45.675781 C 22.78125 45.390625 22.636719 44.800781 22.351562 43.914062 L 20.449219 38.007812 L 22.152344 38.007812 L 23.515625 42.425781 C 23.824219 43.425781 23.949219 44.128906 23.898438 44.527344 C 24.644531 42.53125 25.167969 40.359375 25.464844 38.007812 Z M 27.105469 38.007812 "/>
<path style=" stroke:none;fill-rule:nonzero;fill:rgb(97.254902%,59.607843%,11.372549%);fill-opacity:1;" d="M 50.167969 45.644531 L 45.246094 45.644531 L 45.246094 35.292969 L 46.902344 35.292969 L 46.902344 44.371094 L 50.167969 44.371094 Z M 43.957031 45.894531 L 42.054688 44.957031 C 42.222656 44.820312 42.386719 44.667969 42.53125 44.496094 C 43.339844 43.542969 43.742188 42.140625 43.742188 40.277344 C 43.742188 36.851562 42.398438 35.140625 39.710938 35.140625 C 38.390625 35.140625 37.363281 35.574219 36.628906 36.445312 C 35.820312 37.394531 35.414062 38.796875 35.414062 40.644531 C 35.414062 42.464844 35.773438 43.800781 36.488281 44.648438 C 37.144531 45.414062 38.128906 45.800781 39.449219 45.800781 C 39.941406 45.800781 40.394531 45.738281 40.804688 45.617188 L 43.28125 47.058594 Z M 37.792969 43.574219 C 37.375 42.898438 37.164062 41.816406 37.164062 40.324219 C 37.164062 37.71875 37.957031 36.414062 39.542969 36.414062 C 40.371094 36.414062 40.976562 36.726562 41.367188 37.347656 C 41.785156 38.023438 41.996094 39.097656 41.996094 40.570312 C 41.996094 43.195312 41.203125 44.511719 39.617188 44.511719 C 38.789062 44.511719 38.183594 44.199219 37.792969 43.574219 M 34.695312 42.777344 C 34.695312 43.65625 34.371094 44.375 33.730469 44.9375 C 33.085938 45.5 32.222656 45.78125 31.136719 45.78125 C 30.125 45.78125 29.144531 45.460938 28.195312 44.816406 L 28.640625 43.925781 C 29.457031 44.335938 30.195312 44.539062 30.863281 44.539062 C 31.484375 44.539062 31.972656 44.402344 32.328125 44.128906 C 32.679688 43.851562 32.890625 43.464844 32.890625 42.976562 C 32.890625 42.363281 32.460938 41.835938 31.675781 41.398438 C 30.949219 41 29.496094 40.164062 29.496094 40.164062 C 28.710938 39.59375 28.316406 38.976562 28.316406 37.960938 C 28.316406 37.125 28.609375 36.445312 29.199219 35.929688 C 29.785156 35.414062 30.546875 35.15625 31.476562 35.15625 C 32.4375 35.15625 33.3125 35.414062 34.097656 35.921875 L 33.699219 36.8125 C 33.027344 36.527344 32.363281 36.382812 31.707031 36.382812 C 31.175781 36.382812 30.765625 36.511719 30.480469 36.765625 C 30.195312 37.023438 30.015625 37.347656 30.015625 37.75 C 30.015625 38.359375 30.453125 38.894531 31.261719 39.34375 C 31.996094 39.742188 33.484375 40.589844 33.484375 40.589844 C 34.292969 41.160156 34.695312 41.769531 34.695312 42.777344 "/>
<path style=" stroke:none;fill-rule:nonzero;fill:rgb(36.470588%,52.941176%,63.137255%);fill-opacity:1;" d="M 52.246094 31.828125 C 51.246094 31.800781 50.472656 31.902344 49.820312 32.175781 C 49.632812 32.253906 49.332031 32.253906 49.308594 32.488281 C 49.410156 32.589844 49.421875 32.753906 49.507812 32.890625 C 49.660156 33.140625 49.921875 33.476562 50.160156 33.652344 C 50.421875 33.855469 50.683594 34.050781 50.960938 34.226562 C 51.445312 34.527344 52 34.703125 52.472656 35.003906 C 52.75 35.179688 53.023438 35.402344 53.300781 35.589844 C 53.4375 35.691406 53.523438 35.855469 53.699219 35.917969 L 53.699219 35.878906 C 53.609375 35.765625 53.585938 35.601562 53.5 35.476562 L 53.125 35.117188 C 52.761719 34.628906 52.308594 34.203125 51.824219 33.851562 C 51.421875 33.578125 50.546875 33.203125 50.382812 32.742188 L 50.359375 32.714844 C 50.632812 32.691406 50.960938 32.589844 51.222656 32.511719 C 51.648438 32.402344 52.035156 32.425781 52.472656 32.316406 C 52.671875 32.265625 52.871094 32.203125 53.074219 32.140625 L 53.074219 32.027344 C 52.847656 31.800781 52.6875 31.503906 52.449219 31.289062 C 51.8125 30.738281 51.109375 30.199219 50.382812 29.75 C 49.996094 29.5 49.496094 29.339844 49.082031 29.125 C 48.933594 29.050781 48.683594 29.011719 48.59375 28.886719 C 48.371094 28.613281 48.246094 28.25 48.082031 27.925781 C 47.71875 27.238281 47.367188 26.472656 47.058594 25.746094 C 46.832031 25.257812 46.695312 24.773438 46.417969 24.320312 C 45.128906 22.195312 43.730469 20.90625 41.578125 19.644531 C 41.117188 19.382812 40.566406 19.269531 39.976562 19.132812 L 39.039062 19.082031 C 38.839844 18.992188 38.640625 18.753906 38.464844 18.644531 C 37.75 18.191406 35.914062 17.21875 35.386719 18.503906 C 35.050781 19.320312 35.886719 20.121094 36.175781 20.53125 C 36.386719 20.820312 36.664062 21.144531 36.8125 21.46875 C 36.902344 21.683594 36.925781 21.910156 37.011719 22.132812 C 37.214844 22.683594 37.402344 23.296875 37.664062 23.808594 C 37.800781 24.070312 37.949219 24.347656 38.125 24.585938 C 38.226562 24.722656 38.402344 24.785156 38.441406 25.011719 C 38.265625 25.257812 38.25 25.636719 38.152344 25.949219 C 37.703125 27.359375 37.878906 29.113281 38.515625 30.148438 C 38.714844 30.464844 39.191406 31.152344 39.828125 30.886719 C 40.390625 30.664062 40.265625 29.949219 40.429688 29.324219 C 40.464844 29.171875 40.441406 29.074219 40.515625 28.976562 L 40.515625 29 C 40.691406 29.351562 40.867188 29.6875 41.027344 30.039062 C 41.417969 30.648438 42.09375 31.289062 42.65625 31.710938 C 42.953125 31.9375 43.191406 32.324219 43.566406 32.464844 L 43.566406 32.425781 L 43.542969 32.425781 C 43.464844 32.316406 43.355469 32.265625 43.253906 32.175781 C 43.03125 31.953125 42.78125 31.675781 42.605469 31.425781 C 42.082031 30.726562 41.617188 29.949219 41.203125 29.148438 C 41.003906 28.761719 40.828125 28.335938 40.667969 27.949219 C 40.589844 27.800781 40.589844 27.574219 40.464844 27.5 C 40.277344 27.773438 40.003906 28.011719 39.867188 28.347656 C 39.628906 28.886719 39.601562 29.550781 39.515625 30.238281 L 39.464844 30.261719 C 39.066406 30.164062 38.929688 29.75 38.777344 29.402344 C 38.402344 28.511719 38.339844 27.085938 38.664062 26.0625 C 38.753906 25.796875 39.128906 24.972656 38.976562 24.722656 C 38.902344 24.484375 38.652344 24.347656 38.515625 24.160156 C 38.355469 23.921875 38.175781 23.621094 38.066406 23.359375 C 37.765625 22.660156 37.613281 21.882812 37.289062 21.183594 C 37.140625 20.855469 36.878906 20.519531 36.664062 20.21875 C 36.425781 19.882812 36.164062 19.644531 35.976562 19.242188 C 35.914062 19.105469 35.828125 18.882812 35.925781 18.730469 C 35.949219 18.632812 36 18.59375 36.101562 18.570312 C 36.265625 18.429688 36.726562 18.605469 36.890625 18.679688 C 37.351562 18.867188 37.742188 19.042969 38.128906 19.304688 C 38.300781 19.429688 38.492188 19.667969 38.714844 19.730469 L 38.976562 19.730469 C 39.378906 19.820312 39.828125 19.757812 40.203125 19.871094 C 40.867188 20.082031 41.46875 20.394531 42.003906 20.730469 C 43.644531 21.769531 44.996094 23.246094 45.90625 25.011719 C 46.054688 25.296875 46.121094 25.558594 46.257812 25.859375 C 46.519531 26.472656 46.847656 27.097656 47.105469 27.699219 C 47.371094 28.285156 47.621094 28.886719 47.996094 29.375 C 48.183594 29.636719 48.933594 29.773438 49.273438 29.914062 C 49.523438 30.023438 49.910156 30.125 50.136719 30.261719 C 50.5625 30.523438 50.984375 30.824219 51.382812 31.113281 C 51.582031 31.261719 52.210938 31.578125 52.246094 31.828125 M 39.488281 20.957031 C 39.316406 20.957031 39.144531 20.976562 38.976562 21.019531 L 38.976562 21.046875 L 39 21.046875 C 39.101562 21.246094 39.277344 21.382812 39.402344 21.558594 C 39.503906 21.757812 39.589844 21.957031 39.6875 22.15625 L 39.710938 22.132812 C 39.890625 22.007812 39.976562 21.808594 39.976562 21.507812 C 39.902344 21.417969 39.890625 21.332031 39.824219 21.246094 C 39.753906 21.121094 39.589844 21.058594 39.488281 20.957031 "/>
<path style=" stroke:none;fill-rule:nonzero;fill:rgb(97.254902%,59.607843%,11.372549%);fill-opacity:1;" d="M 53.4375 45.644531 L 53.699219 45.644531 L 53.699219 44.375 L 53.308594 44.375 L 52.992188 45.242188 L 52.648438 44.375 L 52.273438 44.375 L 52.273438 45.644531 L 52.515625 45.644531 L 52.515625 44.679688 L 52.53125 44.679688 L 52.890625 45.644531 L 53.078125 45.644531 L 53.4375 44.679688 Z M 51.351562 45.644531 L 51.625 45.644531 L 51.625 44.589844 L 51.984375 44.589844 L 51.984375 44.375 L 50.976562 44.375 L 50.976562 44.589844 L 51.351562 44.589844 Z M 51.351562 45.644531 "/>
</g>
</svg>
