<?xml version="1.0" encoding="UTF-8"?>
<svg xmlns="http://www.w3.org/2000/svg" xmlns:xlink="http://www.w3.org/1999/xlink" width="64px" height="64px" viewBox="0 0 64 63" version="1.1">
<g id="surface1">
<path style=" stroke:none;fill-rule:nonzero;fill:rgb(36.470588%,52.941176%,63.137255%);fill-opacity:1;" d="M 19.78125 44.929688 L 18.078125 44.929688 C 18.015625 42.054688 17.851562 39.347656 17.578125 36.808594 L 17.5625 36.808594 L 14.964844 44.929688 L 13.664062 44.929688 L 11.085938 36.808594 L 11.070312 36.808594 C 10.875 39.25 10.757812 41.957031 10.707031 44.929688 L 9.148438 44.929688 C 9.253906 41.308594 9.503906 37.914062 9.90625 34.742188 L 12.019531 34.742188 L 14.480469 42.230469 L 14.496094 42.230469 L 16.972656 34.742188 L 18.996094 34.742188 C 19.4375 38.457031 19.699219 41.855469 19.78125 44.929688 M 27.179688 37.414062 C 26.484375 41.183594 25.570312 43.921875 24.429688 45.632812 C 23.546875 46.945312 22.574219 47.605469 21.519531 47.605469 C 21.234375 47.605469 20.886719 47.519531 20.476562 47.351562 L 20.476562 46.441406 C 20.675781 46.46875 20.914062 46.488281 21.183594 46.488281 C 21.679688 46.488281 22.078125 46.351562 22.375 46.082031 C 22.742188 45.746094 22.921875 45.375 22.921875 44.960938 C 22.921875 44.679688 22.78125 44.101562 22.5 43.226562 L 20.625 37.414062 L 22.304688 37.414062 L 23.644531 41.761719 C 23.949219 42.746094 24.074219 43.4375 24.023438 43.832031 C 24.757812 41.867188 25.273438 39.730469 25.566406 37.414062 Z M 27.179688 37.414062 "/>
<path style=" stroke:none;fill-rule:nonzero;fill:rgb(97.254902%,59.607843%,11.372549%);fill-opacity:1;" d="M 49.886719 44.929688 L 45.042969 44.929688 L 45.042969 34.742188 L 46.671875 34.742188 L 46.671875 43.679688 L 49.886719 43.679688 Z M 43.773438 45.175781 L 41.898438 44.253906 C 42.066406 44.121094 42.226562 43.96875 42.371094 43.800781 C 43.164062 42.863281 43.5625 41.480469 43.5625 39.648438 C 43.5625 36.277344 42.238281 34.589844 39.59375 34.589844 C 38.292969 34.589844 37.28125 35.019531 36.558594 35.875 C 35.761719 36.808594 35.363281 38.191406 35.363281 40.007812 C 35.363281 41.800781 35.714844 43.117188 36.417969 43.949219 C 37.066406 44.703125 38.035156 45.085938 39.335938 45.085938 C 39.820312 45.085938 40.265625 45.023438 40.667969 44.90625 L 43.109375 46.324219 Z M 37.703125 42.894531 C 37.292969 42.226562 37.085938 41.164062 37.085938 39.695312 C 37.085938 37.128906 37.867188 35.84375 39.425781 35.84375 C 40.242188 35.84375 40.839844 36.152344 41.222656 36.765625 C 41.632812 37.429688 41.84375 38.488281 41.84375 39.9375 C 41.84375 42.519531 41.0625 43.816406 39.5 43.816406 C 38.683594 43.816406 38.089844 43.507812 37.703125 42.894531 M 34.652344 42.109375 C 34.652344 42.972656 34.335938 43.679688 33.703125 44.234375 C 33.070312 44.789062 32.21875 45.066406 31.148438 45.066406 C 30.152344 45.066406 29.1875 44.75 28.253906 44.117188 L 28.691406 43.238281 C 29.496094 43.644531 30.222656 43.84375 30.878906 43.84375 C 31.492188 43.84375 31.972656 43.707031 32.324219 43.4375 C 32.667969 43.167969 32.875 42.785156 32.875 42.304688 C 32.875 41.703125 32.453125 41.183594 31.679688 40.75 C 30.964844 40.359375 29.535156 39.535156 29.535156 39.535156 C 28.761719 38.976562 28.375 38.367188 28.375 37.367188 C 28.375 36.546875 28.660156 35.875 29.242188 35.367188 C 29.820312 34.859375 30.570312 34.605469 31.484375 34.605469 C 32.429688 34.605469 33.292969 34.859375 34.066406 35.359375 L 33.671875 36.238281 C 33.011719 35.957031 32.359375 35.8125 31.710938 35.8125 C 31.1875 35.8125 30.785156 35.941406 30.503906 36.191406 C 30.222656 36.445312 30.046875 36.765625 30.046875 37.160156 C 30.046875 37.761719 30.476562 38.285156 31.273438 38.730469 C 31.996094 39.121094 33.460938 39.957031 33.460938 39.957031 C 34.257812 40.515625 34.652344 41.117188 34.652344 42.109375 "/>
<path style=" stroke:none;fill-rule:nonzero;fill:rgb(36.470588%,52.941176%,63.137255%);fill-opacity:1;" d="M 51.933594 31.332031 C 50.949219 31.304688 50.1875 31.402344 49.546875 31.671875 C 49.363281 31.75 49.066406 31.75 49.042969 31.980469 C 49.140625 32.082031 49.152344 32.242188 49.238281 32.375 C 49.386719 32.621094 49.644531 32.953125 49.878906 33.125 C 50.136719 33.328125 50.394531 33.519531 50.667969 33.691406 C 51.144531 33.988281 51.691406 34.160156 52.15625 34.457031 C 52.429688 34.628906 52.699219 34.847656 52.972656 35.035156 C 53.109375 35.132812 53.191406 35.296875 53.367188 35.355469 L 53.367188 35.316406 C 53.277344 35.207031 53.253906 35.046875 53.167969 34.921875 L 52.800781 34.570312 C 52.441406 34.085938 51.996094 33.667969 51.519531 33.324219 C 51.125 33.054688 50.261719 32.683594 50.101562 32.230469 L 50.078125 32.203125 C 50.347656 32.179688 50.667969 32.082031 50.925781 32.003906 C 51.347656 31.894531 51.726562 31.917969 52.15625 31.8125 C 52.355469 31.761719 52.550781 31.699219 52.75 31.636719 L 52.75 31.527344 C 52.527344 31.304688 52.371094 31.011719 52.132812 30.800781 C 51.507812 30.257812 50.816406 29.726562 50.101562 29.285156 C 49.71875 29.039062 49.226562 28.882812 48.820312 28.671875 C 48.671875 28.597656 48.425781 28.558594 48.339844 28.433594 C 48.121094 28.167969 47.996094 27.808594 47.835938 27.488281 C 47.476562 26.8125 47.128906 26.058594 46.828125 25.34375 C 46.605469 24.863281 46.46875 24.386719 46.195312 23.941406 C 44.925781 21.847656 43.550781 20.578125 41.429688 19.335938 C 40.976562 19.078125 40.433594 18.96875 39.855469 18.832031 L 38.929688 18.785156 C 38.734375 18.695312 38.539062 18.460938 38.367188 18.351562 C 37.660156 17.90625 35.855469 16.949219 35.335938 18.214844 C 35.003906 19.019531 35.828125 19.808594 36.113281 20.210938 C 36.320312 20.496094 36.59375 20.8125 36.738281 21.132812 C 36.828125 21.34375 36.851562 21.566406 36.933594 21.785156 C 37.132812 22.328125 37.320312 22.933594 37.578125 23.4375 C 37.710938 23.695312 37.859375 23.96875 38.03125 24.203125 C 38.128906 24.335938 38.304688 24.398438 38.34375 24.621094 C 38.167969 24.863281 38.152344 25.234375 38.058594 25.542969 C 37.617188 26.933594 37.789062 28.660156 38.414062 29.675781 C 38.613281 29.988281 39.082031 30.664062 39.707031 30.402344 C 40.261719 30.183594 40.136719 29.480469 40.300781 28.867188 C 40.335938 28.714844 40.3125 28.621094 40.382812 28.523438 L 40.382812 28.546875 C 40.558594 28.894531 40.730469 29.222656 40.886719 29.570312 C 41.273438 30.167969 41.9375 30.800781 42.492188 31.214844 C 42.785156 31.4375 43.019531 31.820312 43.386719 31.957031 L 43.386719 31.917969 L 43.367188 31.917969 C 43.289062 31.8125 43.179688 31.761719 43.082031 31.671875 C 42.863281 31.453125 42.617188 31.179688 42.441406 30.933594 C 41.925781 30.246094 41.46875 29.480469 41.0625 28.691406 C 40.867188 28.3125 40.691406 27.894531 40.535156 27.511719 C 40.457031 27.367188 40.457031 27.144531 40.335938 27.070312 C 40.148438 27.339844 39.878906 27.574219 39.746094 27.90625 C 39.511719 28.433594 39.484375 29.089844 39.398438 29.765625 L 39.351562 29.789062 C 38.957031 29.691406 38.824219 29.285156 38.671875 28.941406 C 38.304688 28.066406 38.242188 26.664062 38.5625 25.65625 C 38.648438 25.394531 39.019531 24.582031 38.871094 24.335938 C 38.796875 24.101562 38.550781 23.96875 38.414062 23.78125 C 38.257812 23.546875 38.082031 23.253906 37.972656 22.996094 C 37.675781 22.304688 37.527344 21.539062 37.207031 20.851562 C 37.0625 20.53125 36.804688 20.199219 36.59375 19.902344 C 36.359375 19.570312 36.101562 19.335938 35.914062 18.941406 C 35.855469 18.808594 35.769531 18.585938 35.867188 18.4375 C 35.886719 18.339844 35.9375 18.304688 36.039062 18.28125 C 36.199219 18.140625 36.652344 18.316406 36.816406 18.386719 C 37.269531 18.574219 37.652344 18.746094 38.035156 19.003906 C 38.203125 19.125 38.390625 19.359375 38.613281 19.421875 L 38.871094 19.421875 C 39.265625 19.511719 39.707031 19.449219 40.078125 19.5625 C 40.730469 19.769531 41.324219 20.074219 41.851562 20.40625 C 43.464844 21.429688 44.796875 22.882812 45.691406 24.621094 C 45.839844 24.902344 45.902344 25.160156 46.039062 25.457031 C 46.296875 26.058594 46.621094 26.675781 46.875 27.265625 C 47.132812 27.84375 47.378906 28.433594 47.75 28.914062 C 47.933594 29.171875 48.671875 29.308594 49.007812 29.445312 C 49.253906 29.554688 49.632812 29.65625 49.859375 29.789062 C 50.277344 30.046875 50.691406 30.34375 51.085938 30.628906 C 51.28125 30.773438 51.898438 31.085938 51.933594 31.332031 M 39.375 20.628906 C 39.203125 20.628906 39.035156 20.648438 38.871094 20.691406 L 38.871094 20.71875 L 38.890625 20.71875 C 38.992188 20.914062 39.164062 21.046875 39.289062 21.222656 C 39.386719 21.417969 39.472656 21.613281 39.570312 21.808594 L 39.59375 21.785156 C 39.769531 21.664062 39.855469 21.46875 39.855469 21.171875 C 39.78125 21.082031 39.769531 21 39.703125 20.914062 C 39.632812 20.792969 39.472656 20.730469 39.375 20.628906 "/>
<path style=" stroke:none;fill-rule:nonzero;fill:rgb(97.254902%,59.607843%,11.372549%);fill-opacity:1;" d="M 53.109375 44.929688 L 53.367188 44.929688 L 53.367188 43.679688 L 52.980469 43.679688 L 52.667969 44.535156 L 52.332031 43.679688 L 51.960938 43.679688 L 51.960938 44.929688 L 52.199219 44.929688 L 52.199219 43.980469 L 52.214844 43.980469 L 52.570312 44.929688 L 52.753906 44.929688 L 53.109375 43.980469 Z M 51.054688 44.929688 L 51.324219 44.929688 L 51.324219 43.894531 L 51.675781 43.894531 L 51.675781 43.679688 L 50.683594 43.679688 L 50.683594 43.894531 L 51.054688 43.894531 Z M 51.054688 44.929688 "/>
</g>
</svg>
