<?xml version="1.0" encoding="UTF-8"?>
<svg xmlns="http://www.w3.org/2000/svg" xmlns:xlink="http://www.w3.org/1999/xlink" width="65px" height="64px" viewBox="0 0 372 64" version="1.1">
<g id="surface1">
<path style=" stroke:none;fill-rule:nonzero;fill:rgb(20%,20%,20%);fill-opacity:1;" d="M 152.019531 18.199219 C 152.0625 20.089844 152.167969 22.15625 152.335938 24.402344 C 152.503906 26.652344 152.746094 28.980469 153.058594 31.398438 C 153.375 33.8125 153.75 36.238281 154.191406 38.675781 C 154.632812 41.109375 155.144531 43.441406 155.734375 45.667969 C 157.328125 43.148438 158.777344 40.53125 160.078125 37.824219 C 161.378906 35.113281 162.519531 32.519531 163.507812 30.042969 C 164.425781 27.730469 165.210938 25.589844 165.855469 23.625 L 166.09375 22.898438 L 166.28125 22.296875 L 166.460938 21.722656 L 166.628906 21.175781 L 166.785156 20.648438 L 166.929688 20.148438 L 167.0625 19.671875 L 167.183594 19.21875 C 167.203125 19.148438 167.222656 19.074219 167.242188 19.003906 L 167.347656 18.589844 C 167.378906 18.453125 167.410156 18.324219 167.441406 18.199219 L 173.546875 18.199219 L 173.394531 18.714844 L 173.230469 19.257812 L 173.050781 19.828125 L 172.863281 20.421875 L 172.660156 21.039062 L 172.445312 21.6875 L 172.21875 22.359375 L 171.980469 23.058594 L 171.59375 24.152344 C 170.757812 26.523438 169.738281 29.085938 168.542969 31.839844 C 167.347656 34.589844 166.003906 37.402344 164.515625 40.28125 C 163.023438 43.15625 161.398438 45.917969 159.636719 48.566406 C 158.292969 50.539062 156.949219 52.398438 155.609375 54.140625 C 154.265625 55.882812 152.828125 57.394531 151.296875 58.675781 C 149.765625 59.957031 148.074219 60.964844 146.230469 61.703125 C 144.382812 62.4375 142.304688 62.804688 140 62.804688 C 138.824219 62.804688 137.734375 62.65625 136.726562 62.363281 C 135.71875 62.070312 134.984375 61.753906 134.523438 61.417969 L 136.535156 56.628906 C 136.957031 56.964844 137.523438 57.25 138.234375 57.480469 C 138.949219 57.710938 139.746094 57.828125 140.628906 57.828125 C 143.0625 57.828125 145.128906 57.238281 146.828125 56.0625 C 148.527344 54.886719 150.132812 53.332031 151.644531 51.402344 C 150.089844 46.316406 148.820312 40.964844 147.835938 35.335938 C 146.847656 29.707031 146.25 23.996094 146.039062 18.199219 Z M 112.871094 7.296875 L 111.675781 12.402344 L 98.519531 12.402344 L 89.269531 50.960938 L 83.164062 50.960938 L 92.414062 12.402344 L 79.261719 12.402344 L 80.457031 7.296875 Z M 126.214844 2.070312 L 122.1875 18.640625 C 123.152344 18.304688 124.167969 18.03125 125.238281 17.820312 C 126.308594 17.609375 127.390625 17.503906 128.480469 17.503906 C 130.367188 17.503906 131.996094 17.765625 133.359375 18.292969 C 134.722656 18.816406 135.824219 19.53125 136.664062 20.433594 C 137.5 21.335938 138.121094 22.429688 138.519531 23.710938 C 138.917969 24.992188 139.117188 26.386719 139.117188 27.898438 C 139.117188 29.75 138.824219 31.847656 138.234375 34.199219 L 134.207031 50.960938 L 128.355469 50.960938 L 132.066406 35.460938 C 132.363281 34.285156 132.644531 33.085938 132.917969 31.871094 C 133.191406 30.652344 133.328125 29.496094 133.328125 28.40625 C 133.328125 26.722656 132.867188 25.328125 131.941406 24.214844 C 131.019531 23.101562 129.296875 22.546875 126.78125 22.546875 C 125.773438 22.546875 124.734375 22.640625 123.664062 22.828125 C 122.59375 23.019531 121.703125 23.28125 120.992188 23.617188 L 114.445312 50.960938 L 108.589844 50.960938 L 120.109375 3.078125 Z M 210.808594 17.503906 C 212.652344 17.503906 214.21875 17.789062 215.496094 18.355469 C 216.777344 18.921875 217.804688 19.6875 218.582031 20.65625 C 219.355469 21.621094 219.914062 22.746094 220.25 24.027344 C 220.585938 25.308594 220.753906 26.660156 220.753906 28.089844 C 220.753906 29.011719 220.679688 30.011719 220.53125 31.082031 C 220.40625 32 220.242188 32.894531 220.039062 33.765625 L 215.90625 50.960938 L 210.050781 50.960938 L 213.765625 35.460938 L 214.0625 34.105469 L 214.398438 32.609375 C 214.429688 32.480469 214.460938 32.347656 214.488281 32.214844 C 214.761719 31.019531 214.898438 29.832031 214.898438 28.65625 C 214.898438 27.859375 214.804688 27.082031 214.617188 26.324219 C 214.425781 25.570312 214.113281 24.917969 213.671875 24.371094 C 213.230469 23.828125 212.613281 23.386719 211.816406 23.050781 C 211.015625 22.714844 210.03125 22.546875 208.855469 22.546875 C 207.511719 22.546875 206.210938 22.808594 204.953125 23.332031 C 203.695312 23.859375 202.644531 24.394531 201.808594 24.9375 C 201.890625 25.527344 201.964844 26.105469 202.027344 26.671875 C 202.089844 27.238281 202.121094 27.796875 202.121094 28.339844 C 202.121094 29.308594 202.046875 30.285156 201.902344 31.269531 C 201.753906 32.257812 201.574219 33.234375 201.367188 34.199219 L 197.339844 50.960938 L 191.484375 50.960938 L 195.199219 35.460938 L 195.492188 34.097656 L 195.808594 32.585938 C 195.835938 32.453125 195.863281 32.320312 195.890625 32.183594 C 196.140625 30.964844 196.269531 29.75 196.269531 28.53125 C 196.269531 27.730469 196.183594 26.964844 196.015625 26.230469 C 195.847656 25.496094 195.566406 24.855469 195.167969 24.308594 C 194.769531 23.761719 194.234375 23.332031 193.5625 23.019531 C 192.890625 22.703125 192.03125 22.546875 190.980469 22.546875 C 189.933594 22.546875 188.914062 22.609375 187.929688 22.734375 C 186.941406 22.859375 186.113281 23.027344 185.441406 23.238281 L 178.769531 50.960938 L 172.917969 50.960938 L 180.46875 19.457031 C 182.359375 18.871094 184.425781 18.398438 186.667969 18.039062 C 188.914062 17.683594 190.917969 17.503906 192.679688 17.503906 C 194.441406 17.503906 195.933594 17.808594 197.148438 18.417969 C 198.367188 19.027344 199.332031 19.835938 200.042969 20.84375 C 200.386719 20.601562 200.835938 20.335938 201.390625 20.039062 L 201.777344 19.835938 C 202.507812 19.457031 203.347656 19.101562 204.292969 18.765625 C 205.238281 18.429688 206.265625 18.136719 207.378906 17.882812 C 208.488281 17.632812 209.632812 17.503906 210.808594 17.503906 Z M 233.089844 33.757812 C 235.523438 33.675781 237.746094 33.519531 239.761719 33.289062 C 241.773438 33.054688 243.515625 32.65625 244.984375 32.089844 C 246.453125 31.523438 247.597656 30.757812 248.414062 29.789062 C 249.234375 28.824219 249.640625 27.5625 249.640625 26.011719 C 249.640625 25.632812 249.570312 25.234375 249.421875 24.8125 C 249.273438 24.394531 249.023438 24.003906 248.667969 23.648438 C 248.308594 23.289062 247.816406 22.996094 247.1875 22.765625 C 246.558594 22.535156 245.78125 22.417969 244.859375 22.417969 C 243.390625 22.417969 242.015625 22.734375 240.734375 23.363281 C 239.457031 23.996094 238.3125 24.824219 237.304688 25.851562 C 236.296875 26.882812 235.4375 28.078125 234.726562 29.445312 C 234.011719 30.808594 233.464844 32.246094 233.089844 33.757812 Z M 239.066406 51.777344 C 236.929688 51.777344 235.082031 51.472656 233.527344 50.863281 C 231.976562 50.253906 230.675781 49.414062 229.625 48.34375 C 228.578125 47.273438 227.800781 46.023438 227.296875 44.597656 C 226.792969 43.167969 226.542969 41.65625 226.542969 40.058594 C 226.542969 37.121094 226.984375 34.285156 227.863281 31.554688 C 228.746094 28.824219 230.003906 26.410156 231.640625 24.308594 C 233.277344 22.210938 235.269531 20.539062 237.621094 19.300781 C 239.96875 18.0625 242.636719 17.441406 245.613281 17.441406 C 247.335938 17.441406 248.8125 17.664062 250.050781 18.101562 C 251.289062 18.542969 252.296875 19.144531 253.074219 19.898438 C 253.847656 20.65625 254.425781 21.527344 254.804688 22.511719 C 255.179688 23.5 255.371094 24.519531 255.371094 25.570312 C 255.371094 27.542969 255.011719 29.214844 254.300781 30.578125 C 253.585938 31.941406 252.640625 33.085938 251.46875 34.011719 C 250.292969 34.9375 248.917969 35.648438 247.34375 36.152344 C 245.769531 36.65625 244.136719 37.058594 242.433594 37.351562 C 240.734375 37.644531 239.015625 37.84375 237.273438 37.949219 L 234.121094 38.132812 L 232.332031 38.234375 C 232.292969 38.570312 232.269531 38.84375 232.269531 39.050781 L 232.269531 39.554688 C 232.269531 40.523438 232.386719 41.433594 232.617188 42.296875 C 232.847656 43.15625 233.277344 43.914062 233.90625 44.566406 C 234.535156 45.214844 235.40625 45.730469 236.519531 46.109375 C 237.632812 46.484375 239.089844 46.675781 240.894531 46.675781 C 241.691406 46.675781 242.519531 46.601562 243.378906 46.453125 C 244.238281 46.308594 245.058594 46.117188 245.835938 45.886719 C 246.609375 45.65625 247.304688 45.425781 247.910156 45.195312 C 248.519531 44.964844 248.949219 44.742188 249.203125 44.53125 L 249.707031 49.511719 C 249.449219 49.652344 249.148438 49.792969 248.796875 49.941406 L 248.484375 50.066406 L 248.148438 50.195312 L 247.789062 50.324219 L 247.40625 50.453125 C 247.339844 50.476562 247.273438 50.5 247.207031 50.519531 L 246.789062 50.652344 C 246.71875 50.675781 246.644531 50.699219 246.574219 50.71875 L 246.121094 50.855469 C 245.964844 50.898438 245.808594 50.945312 245.644531 50.992188 C 243.777344 51.515625 241.585938 51.777344 239.066406 51.777344 Z M 266.382812 36.53125 L 266.226562 37.222656 L 265.914062 38.574219 C 265.859375 38.796875 265.808594 39.019531 265.753906 39.242188 C 265.546875 40.121094 265.441406 40.964844 265.441406 41.761719 C 265.441406 43.1875 265.785156 44.324219 266.480469 45.164062 C 267.171875 46.003906 268.460938 46.527344 270.351562 46.738281 L 269.027344 51.527344 C 267.308594 51.484375 265.851562 51.222656 264.652344 50.738281 C 263.457031 50.253906 262.492188 49.617188 261.757812 48.816406 C 261.023438 48.019531 260.488281 47.074219 260.152344 45.980469 C 259.816406 44.890625 259.648438 43.691406 259.648438 42.390625 C 259.648438 41.425781 259.734375 40.417969 259.902344 39.367188 C 260.070312 38.316406 260.300781 37.226562 260.59375 36.089844 L 268.523438 3.078125 L 274.628906 2.070312 Z M 282.496094 33.757812 C 284.929688 33.675781 287.15625 33.519531 289.167969 33.289062 C 291.183594 33.054688 292.925781 32.65625 294.394531 32.089844 C 295.863281 31.523438 297.003906 30.757812 297.824219 29.789062 C 298.640625 28.824219 299.050781 27.5625 299.050781 26.011719 C 299.050781 25.632812 298.976562 25.234375 298.832031 24.8125 C 298.683594 24.394531 298.433594 24.003906 298.074219 23.648438 C 297.71875 23.289062 297.226562 22.996094 296.597656 22.765625 C 295.96875 22.535156 295.191406 22.417969 294.269531 22.417969 C 292.800781 22.417969 291.425781 22.734375 290.144531 23.363281 C 288.863281 23.996094 287.722656 24.824219 286.714844 25.851562 C 285.707031 26.882812 284.847656 28.078125 284.132812 29.445312 C 283.421875 30.808594 282.875 32.246094 282.496094 33.757812 Z M 288.476562 51.777344 C 286.335938 51.777344 284.492188 51.472656 282.9375 50.863281 C 281.386719 50.253906 280.085938 49.414062 279.035156 48.34375 C 277.988281 47.273438 277.210938 46.023438 276.707031 44.597656 C 276.203125 43.167969 275.953125 41.65625 275.953125 40.058594 C 275.953125 37.121094 276.390625 34.285156 277.273438 31.554688 C 278.15625 28.824219 279.414062 26.410156 281.050781 24.308594 C 282.6875 22.210938 284.679688 20.539062 287.03125 19.300781 C 289.378906 18.0625 292.042969 17.441406 295.023438 17.441406 C 296.742188 17.441406 298.222656 17.664062 299.460938 18.101562 C 300.699219 18.542969 301.707031 19.144531 302.480469 19.898438 C 303.257812 20.65625 303.835938 21.527344 304.210938 22.511719 C 304.589844 23.5 304.777344 24.519531 304.777344 25.570312 C 304.777344 27.542969 304.421875 29.214844 303.707031 30.578125 C 302.996094 31.941406 302.050781 33.085938 300.875 34.011719 C 299.703125 34.9375 298.328125 35.648438 296.753906 36.152344 C 295.179688 36.65625 293.542969 37.058594 291.84375 37.351562 C 290.144531 37.644531 288.425781 37.84375 286.683594 37.949219 L 283.527344 38.132812 L 281.742188 38.234375 L 281.726562 38.371094 L 281.699219 38.628906 C 281.691406 38.75 281.683594 38.859375 281.679688 38.957031 L 281.679688 39.554688 C 281.679688 40.523438 281.792969 41.433594 282.027344 42.296875 C 282.257812 43.15625 282.6875 43.914062 283.316406 44.566406 C 283.945312 45.214844 284.816406 45.730469 285.929688 46.109375 C 287.039062 46.484375 288.496094 46.675781 290.300781 46.675781 C 291.097656 46.675781 291.929688 46.601562 292.789062 46.453125 C 293.648438 46.308594 294.46875 46.117188 295.242188 45.886719 C 296.019531 45.65625 296.710938 45.425781 297.320312 45.195312 C 297.929688 44.964844 298.359375 44.742188 298.609375 44.53125 L 299.113281 49.511719 C 298.785156 49.691406 298.378906 49.875 297.894531 50.066406 L 297.558594 50.195312 L 297.199219 50.324219 L 296.816406 50.453125 C 296.75 50.476562 296.683594 50.5 296.617188 50.519531 L 296.199219 50.652344 C 296.128906 50.675781 296.054688 50.699219 295.980469 50.71875 L 295.53125 50.855469 L 295.054688 50.992188 C 293.1875 51.515625 290.996094 51.777344 288.476562 51.777344 Z M 364.824219 2.070312 C 366.292969 2.070312 367.6875 2.214844 369.011719 2.511719 C 370.332031 2.804688 371.328125 3.121094 372 3.457031 L 369.671875 8.117188 L 369.59375 8.082031 L 369.421875 8.003906 L 369.21875 7.921875 C 369.148438 7.894531 369.070312 7.863281 368.988281 7.835938 L 368.726562 7.742188 C 368.679688 7.726562 368.632812 7.710938 368.582031 7.691406 L 368.277344 7.59375 L 367.941406 7.488281 C 367.121094 7.234375 365.914062 7.109375 364.320312 7.109375 C 362.9375 7.109375 361.761719 7.308594 360.796875 7.707031 C 359.832031 8.105469 359.011719 8.664062 358.339844 9.378906 C 357.671875 10.089844 357.136719 10.953125 356.738281 11.960938 C 356.339844 12.96875 355.992188 14.101562 355.699219 15.363281 L 355.007812 18.199219 L 365.957031 18.199219 L 364.824219 23.113281 L 353.871094 23.113281 L 348.835938 43.902344 L 348.320312 46.109375 L 347.855469 48.140625 L 347.515625 49.636719 C 347.136719 51.316406 346.6875 52.890625 346.164062 54.363281 C 345.636719 55.832031 344.945312 57.25 344.085938 58.613281 C 343.226562 59.980469 342.0625 61.398438 340.59375 62.867188 L 335.429688 62.109375 L 335.652344 61.824219 L 336.070312 61.265625 C 336.277344 60.992188 336.472656 60.726562 336.660156 60.46875 L 337.027344 59.964844 L 337.371094 59.480469 C 337.753906 58.929688 338.09375 58.417969 338.390625 57.953125 C 339.101562 56.820312 339.699219 55.664062 340.183594 54.488281 C 340.625 53.410156 341.015625 52.179688 341.351562 50.804688 L 342.238281 47.058594 L 342.859375 44.46875 L 349.84375 15.238281 C 350.347656 13.136719 350.988281 11.269531 351.765625 9.628906 C 352.539062 7.992188 353.527344 6.617188 354.722656 5.503906 C 355.917969 4.390625 357.335938 3.539062 358.972656 2.953125 C 360.609375 2.363281 362.558594 2.070312 364.824219 2.070312 Z M 331.214844 17.503906 C 332.347656 17.503906 333.667969 17.632812 335.179688 17.882812 C 336.691406 18.136719 337.992188 18.554688 339.082031 19.144531 L 334.234375 38.925781 C 334.027344 39.890625 333.847656 40.816406 333.699219 41.699219 C 333.554688 42.578125 333.480469 43.503906 333.480469 44.46875 C 333.480469 45.4375 333.5625 46.414062 333.730469 47.398438 C 333.898438 48.386719 334.191406 49.449219 334.613281 50.582031 L 329.453125 51.335938 C 329.242188 50.875 329.03125 50.359375 328.824219 49.792969 C 328.613281 49.226562 328.445312 48.628906 328.320312 48 C 327.394531 48.839844 326.15625 49.679688 324.605469 50.519531 C 323.050781 51.359375 321.144531 51.777344 318.878906 51.777344 C 317.03125 51.777344 315.449219 51.484375 314.125 50.894531 C 312.804688 50.308594 311.722656 49.488281 310.882812 48.4375 C 310.042969 47.390625 309.425781 46.148438 309.027344 44.722656 C 308.628906 43.292969 308.429688 41.71875 308.429688 39.996094 C 308.429688 37.183594 308.902344 34.433594 309.84375 31.742188 C 310.789062 29.054688 312.207031 26.660156 314.09375 24.5625 C 315.980469 22.460938 318.351562 20.761719 321.207031 19.457031 C 324.058594 18.15625 327.394531 17.503906 331.214844 17.503906 Z M 329.957031 22.546875 C 327.5625 22.546875 325.402344 23.007812 323.472656 23.929688 C 321.542969 24.855469 319.894531 26.082031 318.53125 27.617188 C 317.167969 29.148438 316.117188 30.933594 315.382812 32.972656 C 314.648438 35.007812 314.28125 37.140625 314.28125 39.367188 C 314.28125 40.25 314.367188 41.140625 314.535156 42.042969 C 314.703125 42.949219 315.007812 43.746094 315.449219 44.4375 C 315.886719 45.132812 316.476562 45.699219 317.210938 46.140625 C 317.945312 46.582031 318.898438 46.800781 320.074219 46.800781 C 321.835938 46.800781 323.347656 46.421875 324.605469 45.667969 C 325.863281 44.910156 326.953125 44.027344 327.878906 43.019531 C 327.921875 42.308594 327.992188 41.5625 328.097656 40.785156 C 328.203125 40.007812 328.339844 39.21875 328.507812 38.421875 L 332.285156 22.796875 C 332.074219 22.714844 331.726562 22.648438 331.246094 22.609375 C 330.761719 22.566406 330.332031 22.546875 329.957031 22.546875 Z M 329.957031 22.546875 "/>
<path style=" stroke:none;fill-rule:nonzero;fill:rgb(0%,37.254902%,5.882353%);fill-opacity:1;" d="M 0 0 L 63.179688 0 L 63.179688 63.347656 L 0 63.347656 Z M 0 0 "/>
<path style=" stroke:none;fill-rule:nonzero;fill:rgb(100%,100%,100%);fill-opacity:1;" d="M 53.847656 8.636719 C 46.066406 18.179688 36.5625 26.175781 26.429688 33.105469 C 23.136719 35.464844 19.5 37.566406 16.964844 40.796875 C 16 42.5 15.765625 44.894531 17.417969 46.277344 C 20.171875 48.875 24.464844 49.4375 27.914062 47.984375 C 32.746094 46.144531 36.082031 41.949219 38.886719 37.792969 C 45.144531 28.769531 48.941406 18.386719 53.847656 8.636719 Z M 53.847656 8.636719 "/>
<path style=" stroke:none;fill-rule:nonzero;fill:rgb(68.235294%,66.27451%,62.352941%);fill-opacity:1;" d="M 49.386719 11.9375 C 39.695312 19.621094 31.949219 23.773438 22.039062 27.34375 C 19.050781 28.625 15.847656 30.25 14.457031 33.394531 C 13.027344 36.367188 13.496094 40.515625 15.136719 43.265625 C 15.011719 42.109375 15.632812 40.234375 16.550781 39.355469 C 19.605469 35.953125 23.582031 33.722656 27.082031 31.136719 L 27.089844 31.128906 L 27.097656 31.125 C 35.195312 25.558594 42.785156 19.199219 49.386719 11.9375 Z M 49.386719 11.9375 "/>
</g>
</svg>
