<?xml version="1.0" encoding="UTF-8"?>
<svg xmlns="http://www.w3.org/2000/svg" xmlns:xlink="http://www.w3.org/1999/xlink" width="64px" height="64px" viewBox="0 0 64 63" version="1.1">
<g id="surface1">
<path style=" stroke:none;fill-rule:nonzero;fill:rgb(20%,20%,20%);fill-opacity:1;" d="M 26.152344 29.125 C 26.160156 29.453125 26.179688 29.808594 26.207031 30.191406 C 26.238281 30.582031 26.277344 30.980469 26.332031 31.398438 C 26.386719 31.8125 26.453125 32.230469 26.527344 32.648438 C 26.601562 33.066406 26.691406 33.46875 26.792969 33.851562 C 27.066406 33.417969 27.316406 32.96875 27.539062 32.5 C 27.765625 32.035156 27.960938 31.589844 28.128906 31.164062 C 28.289062 30.765625 28.421875 30.398438 28.535156 30.058594 L 28.574219 29.933594 L 28.609375 29.832031 L 28.636719 29.730469 L 28.667969 29.636719 L 28.695312 29.546875 L 28.71875 29.460938 L 28.742188 29.378906 L 28.761719 29.300781 C 28.765625 29.289062 28.769531 29.277344 28.773438 29.265625 L 28.789062 29.195312 C 28.796875 29.171875 28.800781 29.148438 28.808594 29.125 L 29.859375 29.125 L 29.832031 29.214844 L 29.804688 29.308594 L 29.773438 29.40625 L 29.738281 29.507812 L 29.703125 29.613281 L 29.667969 29.726562 L 29.589844 29.960938 L 29.523438 30.148438 C 29.378906 30.558594 29.203125 31 28.996094 31.472656 C 28.789062 31.945312 28.558594 32.429688 28.304688 32.925781 C 28.046875 33.417969 27.765625 33.894531 27.464844 34.347656 C 27.234375 34.6875 27.003906 35.007812 26.773438 35.308594 C 26.539062 35.609375 26.292969 35.867188 26.03125 36.089844 C 25.765625 36.308594 25.476562 36.480469 25.15625 36.609375 C 24.839844 36.734375 24.484375 36.796875 24.085938 36.796875 C 23.882812 36.796875 23.695312 36.773438 23.523438 36.722656 C 23.347656 36.671875 23.222656 36.617188 23.144531 36.558594 L 23.488281 35.734375 C 23.5625 35.792969 23.660156 35.84375 23.78125 35.882812 C 23.90625 35.921875 24.042969 35.941406 24.195312 35.941406 C 24.613281 35.941406 24.96875 35.839844 25.261719 35.640625 C 25.554688 35.4375 25.828125 35.167969 26.089844 34.835938 C 25.820312 33.960938 25.601562 33.042969 25.433594 32.074219 C 25.265625 31.105469 25.160156 30.125 25.125 29.125 Z M 19.417969 27.25 L 19.214844 28.128906 L 16.949219 28.128906 L 15.359375 34.761719 L 14.308594 34.761719 L 15.898438 28.128906 L 13.636719 28.128906 L 13.84375 27.25 Z M 21.714844 26.351562 L 21.023438 29.203125 C 21.1875 29.144531 21.363281 29.097656 21.546875 29.0625 C 21.730469 29.023438 21.917969 29.007812 22.105469 29.007812 C 22.429688 29.007812 22.710938 29.050781 22.945312 29.140625 C 23.179688 29.230469 23.367188 29.355469 23.511719 29.511719 C 23.65625 29.664062 23.761719 29.855469 23.832031 30.074219 C 23.898438 30.292969 23.933594 30.535156 23.933594 30.792969 C 23.933594 31.113281 23.882812 31.472656 23.78125 31.878906 L 23.089844 34.761719 L 22.082031 34.761719 L 22.722656 32.09375 C 22.773438 31.894531 22.820312 31.6875 22.867188 31.476562 C 22.914062 31.269531 22.9375 31.070312 22.9375 30.882812 C 22.9375 30.59375 22.859375 30.351562 22.699219 30.160156 C 22.539062 29.96875 22.246094 29.875 21.8125 29.875 C 21.636719 29.875 21.460938 29.890625 21.277344 29.921875 C 21.089844 29.957031 20.9375 30 20.816406 30.058594 L 19.691406 34.761719 L 18.683594 34.761719 L 20.664062 26.527344 Z M 36.269531 29.007812 C 36.585938 29.007812 36.855469 29.054688 37.074219 29.152344 C 37.296875 29.25 37.472656 29.382812 37.605469 29.550781 C 37.738281 29.714844 37.835938 29.910156 37.890625 30.128906 C 37.949219 30.347656 37.980469 30.582031 37.980469 30.828125 C 37.980469 30.984375 37.964844 31.15625 37.941406 31.34375 C 37.917969 31.5 37.890625 31.652344 37.855469 31.804688 L 37.144531 34.761719 L 36.136719 34.761719 L 36.777344 32.09375 L 36.828125 31.863281 L 36.886719 31.605469 C 36.890625 31.582031 36.898438 31.558594 36.902344 31.535156 C 36.949219 31.332031 36.972656 31.128906 36.972656 30.925781 C 36.972656 30.789062 36.957031 30.652344 36.921875 30.523438 C 36.890625 30.394531 36.835938 30.28125 36.761719 30.1875 C 36.683594 30.09375 36.578125 30.019531 36.441406 29.960938 C 36.304688 29.902344 36.132812 29.875 35.933594 29.875 C 35.699219 29.875 35.476562 29.917969 35.261719 30.007812 C 35.042969 30.101562 34.863281 30.191406 34.71875 30.285156 C 34.734375 30.386719 34.746094 30.484375 34.757812 30.582031 C 34.769531 30.679688 34.773438 30.777344 34.773438 30.871094 C 34.773438 31.035156 34.761719 31.203125 34.734375 31.375 C 34.710938 31.542969 34.679688 31.710938 34.644531 31.878906 L 33.949219 34.761719 L 32.945312 34.761719 L 33.582031 32.09375 L 33.632812 31.859375 L 33.6875 31.601562 C 33.691406 31.578125 33.695312 31.554688 33.703125 31.53125 C 33.746094 31.320312 33.765625 31.113281 33.765625 30.902344 C 33.765625 30.765625 33.753906 30.632812 33.722656 30.507812 C 33.695312 30.382812 33.644531 30.269531 33.578125 30.175781 C 33.507812 30.082031 33.417969 30.007812 33.300781 29.957031 C 33.183594 29.902344 33.039062 29.875 32.855469 29.875 C 32.675781 29.875 32.5 29.886719 32.332031 29.90625 C 32.160156 29.929688 32.019531 29.957031 31.902344 29.992188 L 30.757812 34.761719 L 29.75 34.761719 L 31.046875 29.34375 C 31.375 29.242188 31.730469 29.160156 32.113281 29.097656 C 32.5 29.039062 32.847656 29.007812 33.148438 29.007812 C 33.453125 29.007812 33.710938 29.058594 33.917969 29.164062 C 34.128906 29.269531 34.292969 29.40625 34.414062 29.582031 C 34.476562 29.539062 34.550781 29.492188 34.648438 29.441406 L 34.714844 29.40625 C 34.839844 29.34375 34.984375 29.28125 35.148438 29.222656 C 35.308594 29.164062 35.488281 29.117188 35.679688 29.070312 C 35.867188 29.027344 36.066406 29.007812 36.269531 29.007812 Z M 40.101562 31.800781 C 40.519531 31.789062 40.902344 31.761719 41.25 31.722656 C 41.59375 31.679688 41.894531 31.613281 42.148438 31.515625 C 42.402344 31.417969 42.597656 31.285156 42.738281 31.121094 C 42.878906 30.953125 42.949219 30.738281 42.949219 30.46875 C 42.949219 30.40625 42.9375 30.335938 42.910156 30.265625 C 42.886719 30.191406 42.84375 30.125 42.78125 30.0625 C 42.71875 30 42.636719 29.953125 42.527344 29.910156 C 42.417969 29.871094 42.285156 29.851562 42.125 29.851562 C 41.875 29.851562 41.636719 29.90625 41.417969 30.015625 C 41.195312 30.125 41 30.265625 40.828125 30.441406 C 40.652344 30.621094 40.503906 30.824219 40.382812 31.0625 C 40.261719 31.296875 40.164062 31.542969 40.101562 31.800781 Z M 41.128906 34.902344 C 40.761719 34.902344 40.445312 34.847656 40.175781 34.746094 C 39.910156 34.640625 39.6875 34.496094 39.503906 34.3125 C 39.324219 34.128906 39.191406 33.910156 39.105469 33.667969 C 39.019531 33.421875 38.976562 33.160156 38.976562 32.886719 C 38.976562 32.378906 39.050781 31.894531 39.203125 31.421875 C 39.355469 30.953125 39.570312 30.539062 39.851562 30.175781 C 40.132812 29.816406 40.476562 29.527344 40.882812 29.316406 C 41.285156 29.101562 41.742188 28.996094 42.257812 28.996094 C 42.550781 28.996094 42.804688 29.035156 43.019531 29.109375 C 43.234375 29.183594 43.40625 29.289062 43.539062 29.417969 C 43.671875 29.550781 43.773438 29.699219 43.835938 29.867188 C 43.902344 30.039062 43.933594 30.214844 43.933594 30.394531 C 43.933594 30.734375 43.871094 31.019531 43.75 31.253906 C 43.628906 31.488281 43.464844 31.6875 43.261719 31.847656 C 43.0625 32.003906 42.824219 32.128906 42.554688 32.214844 C 42.28125 32.300781 42.003906 32.371094 41.710938 32.421875 C 41.417969 32.472656 41.121094 32.503906 40.820312 32.523438 L 40.277344 32.554688 L 39.972656 32.574219 C 39.964844 32.628906 39.960938 32.675781 39.960938 32.710938 L 39.960938 32.800781 C 39.960938 32.964844 39.980469 33.121094 40.019531 33.269531 C 40.058594 33.417969 40.132812 33.550781 40.242188 33.660156 C 40.351562 33.773438 40.5 33.863281 40.691406 33.925781 C 40.882812 33.992188 41.132812 34.023438 41.445312 34.023438 C 41.582031 34.023438 41.722656 34.011719 41.871094 33.984375 C 42.019531 33.960938 42.160156 33.929688 42.292969 33.886719 C 42.425781 33.847656 42.546875 33.808594 42.652344 33.769531 C 42.757812 33.730469 42.828125 33.691406 42.875 33.65625 L 42.960938 34.511719 C 42.914062 34.535156 42.863281 34.558594 42.804688 34.585938 L 42.75 34.609375 L 42.691406 34.628906 L 42.566406 34.675781 C 42.554688 34.679688 42.542969 34.683594 42.53125 34.683594 L 42.457031 34.707031 C 42.445312 34.710938 42.433594 34.714844 42.421875 34.71875 L 42.34375 34.742188 C 42.316406 34.75 42.289062 34.757812 42.261719 34.765625 C 41.941406 34.855469 41.5625 34.902344 41.128906 34.902344 Z M 45.828125 32.28125 L 45.800781 32.398438 L 45.75 32.628906 C 45.738281 32.667969 45.730469 32.707031 45.722656 32.746094 C 45.683594 32.898438 45.667969 33.042969 45.667969 33.179688 C 45.667969 33.425781 45.726562 33.621094 45.847656 33.765625 C 45.964844 33.910156 46.1875 34 46.511719 34.035156 L 46.285156 34.859375 C 45.988281 34.851562 45.738281 34.804688 45.53125 34.722656 C 45.324219 34.640625 45.160156 34.53125 45.035156 34.390625 C 44.90625 34.253906 44.816406 34.09375 44.757812 33.90625 C 44.699219 33.71875 44.671875 33.511719 44.671875 33.289062 C 44.671875 33.121094 44.683594 32.949219 44.714844 32.765625 C 44.742188 32.585938 44.78125 32.398438 44.832031 32.203125 L 46.199219 26.527344 L 47.246094 26.351562 Z M 48.601562 31.800781 C 49.019531 31.789062 49.402344 31.761719 49.75 31.722656 C 50.097656 31.679688 50.394531 31.613281 50.648438 31.515625 C 50.902344 31.417969 51.097656 31.285156 51.238281 31.121094 C 51.378906 30.953125 51.449219 30.738281 51.449219 30.46875 C 51.449219 30.40625 51.4375 30.335938 51.410156 30.265625 C 51.386719 30.191406 51.34375 30.125 51.28125 30.0625 C 51.21875 30 51.136719 29.953125 51.027344 29.910156 C 50.917969 29.871094 50.785156 29.851562 50.628906 29.851562 C 50.375 29.851562 50.136719 29.90625 49.917969 30.015625 C 49.695312 30.125 49.5 30.265625 49.328125 30.441406 C 49.152344 30.621094 49.007812 30.824219 48.882812 31.0625 C 48.761719 31.296875 48.667969 31.542969 48.601562 31.800781 Z M 49.628906 34.902344 C 49.261719 34.902344 48.945312 34.847656 48.675781 34.746094 C 48.410156 34.640625 48.1875 34.496094 48.007812 34.3125 C 47.824219 34.128906 47.691406 33.910156 47.605469 33.667969 C 47.519531 33.421875 47.476562 33.160156 47.476562 32.886719 C 47.476562 32.378906 47.550781 31.894531 47.703125 31.421875 C 47.855469 30.953125 48.070312 30.539062 48.351562 30.175781 C 48.632812 29.816406 48.976562 29.527344 49.382812 29.316406 C 49.785156 29.101562 50.242188 28.996094 50.757812 28.996094 C 51.050781 28.996094 51.308594 29.035156 51.519531 29.109375 C 51.734375 29.183594 51.90625 29.289062 52.039062 29.417969 C 52.171875 29.550781 52.273438 29.699219 52.335938 29.867188 C 52.402344 30.039062 52.433594 30.214844 52.433594 30.394531 C 52.433594 30.734375 52.375 31.019531 52.25 31.253906 C 52.128906 31.488281 51.964844 31.6875 51.761719 31.847656 C 51.5625 32.003906 51.324219 32.128906 51.054688 32.214844 C 50.785156 32.300781 50.503906 32.371094 50.210938 32.421875 C 49.917969 32.472656 49.621094 32.503906 49.320312 32.523438 L 48.777344 32.554688 L 48.472656 32.574219 L 48.46875 32.597656 L 48.464844 32.640625 C 48.464844 32.660156 48.460938 32.679688 48.460938 32.695312 L 48.460938 32.800781 C 48.460938 32.964844 48.480469 33.121094 48.519531 33.269531 C 48.558594 33.417969 48.632812 33.550781 48.742188 33.660156 C 48.851562 33.773438 49 33.863281 49.191406 33.925781 C 49.382812 33.992188 49.632812 34.023438 49.945312 34.023438 C 50.082031 34.023438 50.222656 34.011719 50.371094 33.984375 C 50.519531 33.960938 50.660156 33.929688 50.792969 33.886719 C 50.929688 33.847656 51.046875 33.808594 51.152344 33.769531 C 51.257812 33.730469 51.332031 33.691406 51.375 33.65625 L 51.460938 34.511719 C 51.402344 34.542969 51.335938 34.574219 51.25 34.609375 L 51.191406 34.628906 L 51.132812 34.652344 L 51.066406 34.675781 C 51.054688 34.679688 51.042969 34.683594 51.03125 34.683594 L 50.960938 34.707031 C 50.945312 34.710938 50.933594 34.714844 50.921875 34.71875 L 50.84375 34.742188 L 50.761719 34.765625 C 50.441406 34.855469 50.0625 34.902344 49.628906 34.902344 Z M 62.765625 26.351562 C 63.019531 26.351562 63.257812 26.375 63.484375 26.429688 C 63.714844 26.476562 63.882812 26.53125 64 26.589844 L 63.597656 27.390625 L 63.585938 27.386719 L 63.554688 27.371094 L 63.523438 27.359375 C 63.507812 27.355469 63.496094 27.347656 63.480469 27.34375 L 63.4375 27.328125 C 63.429688 27.324219 63.421875 27.320312 63.410156 27.320312 L 63.359375 27.300781 L 63.300781 27.285156 C 63.160156 27.242188 62.953125 27.21875 62.679688 27.21875 C 62.441406 27.21875 62.238281 27.253906 62.074219 27.320312 C 61.90625 27.390625 61.765625 27.484375 61.648438 27.609375 C 61.535156 27.730469 61.441406 27.878906 61.375 28.054688 C 61.304688 28.226562 61.246094 28.421875 61.195312 28.636719 L 61.078125 29.125 L 62.960938 29.125 L 62.765625 29.972656 L 60.882812 29.972656 L 60.015625 33.546875 L 59.925781 33.925781 L 59.847656 34.277344 L 59.789062 34.535156 C 59.722656 34.824219 59.644531 35.09375 59.554688 35.347656 C 59.464844 35.597656 59.34375 35.84375 59.199219 36.078125 C 59.050781 36.3125 58.847656 36.554688 58.597656 36.808594 L 57.707031 36.679688 L 57.746094 36.628906 L 57.820312 36.535156 C 57.855469 36.488281 57.886719 36.441406 57.921875 36.398438 L 57.984375 36.308594 L 58.042969 36.226562 C 58.109375 36.132812 58.167969 36.042969 58.21875 35.964844 C 58.339844 35.769531 58.441406 35.570312 58.527344 35.367188 C 58.601562 35.183594 58.667969 34.972656 58.726562 34.734375 L 58.878906 34.089844 L 58.988281 33.644531 L 60.1875 28.617188 C 60.273438 28.253906 60.386719 27.933594 60.519531 27.652344 C 60.652344 27.371094 60.820312 27.132812 61.027344 26.941406 C 61.234375 26.75 61.476562 26.605469 61.757812 26.503906 C 62.039062 26.402344 62.375 26.351562 62.765625 26.351562 Z M 56.984375 29.007812 C 57.179688 29.007812 57.40625 29.027344 57.664062 29.070312 C 57.925781 29.117188 58.148438 29.1875 58.335938 29.289062 L 57.503906 32.691406 C 57.46875 32.855469 57.4375 33.015625 57.410156 33.167969 C 57.386719 33.320312 57.371094 33.480469 57.371094 33.644531 C 57.371094 33.8125 57.386719 33.980469 57.414062 34.148438 C 57.445312 34.320312 57.496094 34.5 57.566406 34.695312 L 56.679688 34.824219 C 56.644531 34.746094 56.609375 34.65625 56.570312 34.558594 C 56.535156 34.464844 56.507812 34.359375 56.484375 34.253906 C 56.324219 34.394531 56.113281 34.539062 55.847656 34.683594 C 55.578125 34.828125 55.25 34.902344 54.859375 34.902344 C 54.542969 34.902344 54.269531 34.851562 54.042969 34.75 C 53.816406 34.648438 53.628906 34.507812 53.484375 34.328125 C 53.339844 34.148438 53.234375 33.933594 53.164062 33.6875 C 53.097656 33.441406 53.0625 33.171875 53.0625 32.875 C 53.0625 32.390625 53.144531 31.917969 53.304688 31.457031 C 53.46875 30.992188 53.714844 30.582031 54.039062 30.222656 C 54.363281 29.859375 54.769531 29.566406 55.261719 29.34375 C 55.753906 29.117188 56.324219 29.007812 56.984375 29.007812 Z M 56.765625 29.875 C 56.355469 29.875 55.984375 29.953125 55.652344 30.113281 C 55.320312 30.269531 55.035156 30.480469 54.800781 30.746094 C 54.566406 31.007812 54.386719 31.316406 54.257812 31.667969 C 54.132812 32.015625 54.070312 32.382812 54.070312 32.765625 C 54.070312 32.917969 54.085938 33.070312 54.113281 33.226562 C 54.140625 33.382812 54.195312 33.519531 54.269531 33.640625 C 54.347656 33.757812 54.449219 33.855469 54.574219 33.933594 C 54.699219 34.007812 54.863281 34.046875 55.066406 34.046875 C 55.371094 34.046875 55.628906 33.980469 55.847656 33.851562 C 56.0625 33.71875 56.25 33.570312 56.410156 33.394531 C 56.417969 33.273438 56.429688 33.144531 56.445312 33.011719 C 56.464844 32.878906 56.488281 32.742188 56.515625 32.605469 L 57.167969 29.917969 C 57.132812 29.902344 57.070312 29.890625 56.988281 29.886719 C 56.90625 29.878906 56.832031 29.875 56.765625 29.875 Z M 56.765625 29.875 "/>
<path style=" stroke:none;fill-rule:nonzero;fill:rgb(0%,37.254902%,5.882353%);fill-opacity:1;" d="M 0 25.996094 L 10.871094 25.996094 L 10.871094 36.890625 L 0 36.890625 Z M 0 25.996094 "/>
<path style=" stroke:none;fill-rule:nonzero;fill:rgb(100%,100%,100%);fill-opacity:1;" d="M 9.265625 27.480469 C 7.925781 29.121094 6.289062 30.5 4.546875 31.691406 C 3.980469 32.097656 3.355469 32.457031 2.917969 33.011719 C 2.753906 33.304688 2.710938 33.71875 2.996094 33.957031 C 3.46875 34.402344 4.210938 34.5 4.800781 34.25 C 5.632812 33.933594 6.207031 33.210938 6.691406 32.496094 C 7.765625 30.945312 8.421875 29.160156 9.265625 27.480469 Z M 9.265625 27.480469 "/>
<path style=" stroke:none;fill-rule:nonzero;fill:rgb(68.235294%,66.27451%,62.352941%);fill-opacity:1;" d="M 8.496094 28.050781 C 6.828125 29.371094 5.496094 30.085938 3.792969 30.699219 C 3.277344 30.917969 2.726562 31.199219 2.488281 31.738281 C 2.242188 32.25 2.320312 32.964844 2.605469 33.4375 C 2.582031 33.238281 2.691406 32.917969 2.847656 32.765625 C 3.371094 32.179688 4.058594 31.796875 4.660156 31.351562 L 4.660156 31.347656 C 6.054688 30.390625 7.359375 29.296875 8.496094 28.050781 Z M 8.496094 28.050781 "/>
</g>
</svg>
