<?xml version="1.0" encoding="UTF-8"?>
<svg xmlns="http://www.w3.org/2000/svg" xmlns:xlink="http://www.w3.org/1999/xlink" width="64px" height="64px" viewBox="0 0 64 63" version="1.1">
<g id="surface1">
<path style=" stroke:none;fill-rule:nonzero;fill:rgb(42.745098%,70.196078%,24.705882%);fill-opacity:1;" d="M 10.078125 8.828125 C 22.527344 -3.230469 42.433594 -2.902344 54.496094 9.609375 C 55.859375 7.789062 57.027344 5.78125 57.871094 3.707031 C 61.828125 15.765625 64.222656 25.878906 63.316406 33.722656 C 62.863281 40.335938 60.269531 46.6875 55.988281 51.746094 C 44.835938 64.972656 24.992188 66.65625 11.765625 55.503906 L 11.511719 55.28125 L 11.496094 55.273438 C 11.457031 55.246094 11.414062 55.214844 11.375 55.183594 C 11.253906 55.089844 11.144531 54.988281 11.046875 54.878906 L 11.011719 54.835938 L 10.597656 54.472656 C 10.191406 54.125 9.789062 53.777344 9.429688 53.386719 L 9.300781 53.238281 C -2.761719 40.789062 -2.375 20.886719 10.078125 8.828125 Z M 14.746094 51.035156 C 13.582031 50.125 11.890625 50.257812 10.984375 51.421875 C 10.1875 52.449219 10.191406 53.875 11 54.820312 L 11.011719 54.835938 L 11.511719 55.28125 L 11.5625 55.316406 C 12.691406 56.058594 14.21875 55.90625 15.089844 54.851562 L 15.132812 54.792969 C 16.046875 53.625 15.851562 51.941406 14.746094 51.035156 Z M 57.546875 6.949219 C 54.304688 13.757812 46.261719 18.941406 39.324219 20.5625 C 32.773438 22.121094 27.070312 20.820312 21.039062 23.15625 C 7.289062 28.410156 7.550781 44.746094 15.074219 48.441406 L 15.527344 48.699219 C 15.527344 48.699219 20.957031 47.617188 26.332031 46.191406 L 26.792969 46.070312 C 28.9375 45.492188 31.050781 44.863281 32.773438 44.226562 C 41.722656 40.921875 51.582031 32.753906 54.824219 23.285156 C 53.132812 33.140625 44.640625 42.671875 36.144531 47.015625 C 31.609375 49.347656 28.105469 49.867188 20.648438 52.460938 C 19.742188 52.785156 19.027344 53.109375 19.027344 53.109375 C 19.121094 53.09375 19.207031 53.082031 19.300781 53.070312 L 19.660156 53.027344 C 21.308594 52.820312 22.789062 52.71875 22.789062 52.71875 C 33.359375 52.203125 49.957031 55.703125 57.675781 45.394531 C 65.585938 34.890625 61.175781 17.90625 57.546875 6.949219 Z M 57.546875 6.949219 "/>
<path style=" stroke:none;fill-rule:nonzero;fill:rgb(100%,100%,100%);fill-opacity:1;" d="M 14.746094 51.035156 C 15.851562 51.941406 16.046875 53.625 15.132812 54.792969 C 14.226562 55.960938 12.542969 56.089844 11.375 55.183594 C 10.207031 54.273438 10.078125 52.589844 10.984375 51.421875 C 11.890625 50.257812 13.582031 50.125 14.746094 51.035156 Z M 57.546875 6.949219 C 61.175781 17.90625 65.585938 34.890625 57.675781 45.394531 C 49.957031 55.703125 33.359375 52.203125 22.789062 52.71875 C 22.789062 52.71875 21.308594 52.820312 19.660156 53.027344 L 19.480469 53.046875 C 19.332031 53.066406 19.175781 53.085938 19.027344 53.109375 C 19.027344 53.109375 19.742188 52.785156 20.648438 52.460938 C 28.105469 49.867188 31.609375 49.347656 36.144531 47.015625 C 44.640625 42.671875 53.132812 33.140625 54.824219 23.285156 C 51.582031 32.753906 41.722656 40.921875 32.773438 44.226562 C 26.617188 46.496094 15.527344 48.699219 15.527344 48.699219 L 15.074219 48.441406 C 7.550781 44.746094 7.289062 28.410156 21.039062 23.15625 C 27.070312 20.820312 32.773438 22.121094 39.324219 20.5625 C 46.261719 18.941406 54.304688 13.757812 57.546875 6.949219 Z M 57.546875 6.949219 "/>
</g>
</svg>
